<?xml version="1.0" encoding="UTF-8"?>
<svg width="24" height="24" version="1.1" viewBox="0 0 24 24" xml:space="preserve"
  xmlns="http://www.w3.org/2000/svg">
  <g transform="rotate(45 12.097 11.766)">
    <path d="m-1.4419 9.571h27.271c0.48788 0 0.88064 0.39277 0.88064 0.88064v3.0968c0 0.48788-0.39277 0.88064-0.88064 0.88064h-27.271c-0.48788 0-0.88064-0.39277-0.88064-0.88064v-3.0968c0-0.48788 0.39277-0.88064 0.88064-0.88064z" fill="#d45500" stroke-linecap="round"/>
    <path d="m11.535 12a1.3258 1.3258 0 0 1-1.3258 1.3258 1.3258 1.3258 0 0 1-1.3258-1.3258 1.3258 1.3258 0 0 1 1.3258-1.3258 1.3258 1.3258 0 0 1 1.3258 1.3258z" stroke-linecap="round"/>
    <path d="m-1.4516 10.674c0.73222 0 1.3258 0.59358 1.3258 1.3258s-0.59358 1.3258-1.3258 1.3258"/>
    <g stroke-linecap="round">
      <path d="m16.165 12a1.3258 1.3258 0 0 1-1.3258 1.3258 1.3258 1.3258 0 0 1-1.3258-1.3258 1.3258 1.3258 0 0 1 1.3258-1.3258 1.3258 1.3258 0 0 1 1.3258 1.3258z"/>
      <path d="m20.794 12a1.3258 1.3258 0 0 1-1.3258 1.3258 1.3258 1.3258 0 0 1-1.3258-1.3258 1.3258 1.3258 0 0 1 1.3258-1.3258 1.3258 1.3258 0 0 1 1.3258 1.3258z"/>
      <path d="m25.423 12a1.3258 1.3258 0 0 1-1.3258 1.3258 1.3258 1.3258 0 0 1-1.3258-1.3258 1.3258 1.3258 0 0 1 1.3258-1.3258 1.3258 1.3258 0 0 1 1.3258 1.3258z"/>
    </g>
  </g>

</svg>
