<?xml version="1.0" encoding="UTF-8"?>
<svg width="24" height="24" fill="none" stroke="currentColor" stroke-linecap="round" stroke-linejoin="round" stroke-width="1.5" version="1.1" viewBox="0 0 24 24" xml:space="preserve"
  xmlns="http://www.w3.org/2000/svg">
  <g transform="matrix(1.9375 0 0 1.9375 -131.89 -42.913)" fill="none" stroke="#d08a4f" stroke-width=".7742" style="shape-inside:url(#rect625-5);white-space:pre" aria-label="a">
    <path d="m79.378 28.659c0 0.18229-0.63368 1.0243-1.901 2.526-1.0243 1.2326-1.8316 1.849-2.4219 1.849-0.39931 0-0.72483-0.14757-0.97656-0.44271-0.25174-0.30382-0.3776-0.68142-0.3776-1.1328 0-0.46875 0.17826-1.2718 0.45603-1.8187-0.86806 1.2153-1.5715 2.3308-2.0316 2.7562-0.46007 0.42535-0.90712 0.63802-1.3411 0.63802-0.46007 0-0.84636-0.19531-1.1589-0.58594-0.3125-0.39931-0.46875-0.89844-0.46875-1.4974 0-1.6667 1.1762-3.1424 3.5286-4.4271 1.033-0.57292 1.8663-0.85938 2.5-0.85938 0.5382 0 0.80729 0.26042 0.80729 0.78125 0 0.14757-0.27092 0.44786-0.34036 0.69092l0.90026-1.368c0.26042 0.06077 0.49045 0.09115 0.6901 0.09115 0.23438 0 0.5382-0.03038 0.91146-0.09115l-2.3047 3.8151c-0.79861 1.3368-1.1979 2.2179-1.1979 2.6432 0 0.40799 0.16927 0.61198 0.50781 0.61198 0.34722 0 0.90278-0.39497 1.6667-1.1849 0.76389-0.79861 1.5408-1.7795 2.3307-2.9427 0.05209-0.08681 0.09983-0.13021 0.14323-0.13021 0.05209 0 0.07813 0.02604 0.07813 0.07813zm-3.5807-2.1615c0-0.42535-0.19531-0.63802-0.58594-0.63802-0.79861 0-1.849 0.78125-3.151 2.3438-1.2934 1.5625-1.9401 2.8255-1.9401 3.7891 0 0.56424 0.25174 0.84636 0.75521 0.84636 0.59896 0 1.6363-0.99392 3.112-2.9818 1.2066-1.6319 1.8099-2.7517 1.8099-3.3594z" fill="none" stroke="#d08a4f" stroke-width=".51614"/>
  </g>
</svg>
