<?xml version="1.0" encoding="UTF-8" standalone="no"?>
<svg
   width="24"
   height="24"
   fill="none"
   stroke="currentColor"
   stroke-linecap="round"
   stroke-linejoin="round"
   stroke-width="1.5"
   version="1.1"
   viewBox="0 0 24 24"
   xml:space="preserve"
   id="svg14"
   sodipodi:docname="coefficient.svg"
   inkscape:version="1.2.1 (9c6d41e410, 2022-07-14)"
   xmlns:inkscape="http://www.inkscape.org/namespaces/inkscape"
   xmlns:sodipodi="http://sodipodi.sourceforge.net/DTD/sodipodi-0.dtd"
   xmlns="http://www.w3.org/2000/svg"
   xmlns:svg="http://www.w3.org/2000/svg"><defs
     id="defs18"><rect
       x="-10.169492"
       y="10.169492"
       width="87.152542"
       height="41.79661"
       id="rect625" /><rect
       x="-10.169492"
       y="10.169492"
       width="87.152542"
       height="41.796612"
       id="rect625-2" /><rect
       x="-10.169492"
       y="10.169492"
       width="87.152542"
       height="41.796612"
       id="rect625-5" /><rect
       x="-10.169492"
       y="10.169492"
       width="87.152542"
       height="41.796612"
       id="rect625-5-6" /></defs><sodipodi:namedview
     id="namedview16"
     pagecolor="#505050"
     bordercolor="#ffffff"
     borderopacity="1"
     inkscape:showpageshadow="0"
     inkscape:pageopacity="0"
     inkscape:pagecheckerboard="1"
     inkscape:deskcolor="#505050"
     showgrid="false"
     inkscape:zoom="78.666668"
     inkscape:cx="13.004237"
     inkscape:cy="13.881356"
     inkscape:window-width="2520"
     inkscape:window-height="1574"
     inkscape:window-x="-11"
     inkscape:window-y="-11"
     inkscape:window-maximized="1"
     inkscape:current-layer="svg14" /><g
     aria-label="a"
     transform="matrix(1.9374792,0,0,1.9374792,-131.89189,-42.91347)"
     id="text623-6"
     style="font-stretch:semi-expanded;font-size:26.6667px;font-family:'Edwardian Script ITC';-inkscape-font-specification:'Edwardian Script ITC Semi-Expanded';text-align:end;white-space:pre;shape-inside:url(#rect625-5);display:inline;fill:none;stroke:#d08a4f;stroke-width:0.774202;stroke-opacity:1"><path
       d="m 79.378258,28.65874 c 0,0.182292 -0.633681,1.024307 -1.901044,2.526045 -1.024307,1.23264 -1.831599,1.84896 -2.421878,1.84896 -0.399306,0 -0.724827,-0.14757 -0.976564,-0.442709 -0.251736,-0.303819 -0.377604,-0.681424 -0.377604,-1.132814 0,-0.46875 0.178255,-1.27181 0.456033,-1.818686 -0.868056,1.21528 -1.571486,2.33084 -2.031556,2.756188 -0.46007,0.425347 -0.907119,0.638021 -1.341148,0.638021 -0.46007,0 -0.846355,-0.195313 -1.158855,-0.585938 -0.312501,-0.399306 -0.468751,-0.898439 -0.468751,-1.497398 0,-1.666669 1.176217,-3.142365 3.52865,-4.427089 1.032988,-0.572917 1.866323,-0.859376 2.500004,-0.859376 0.538195,0 0.807292,0.260417 0.807292,0.781251 0,0.14757 -0.270919,0.447859 -0.340364,0.690915 l 0.900261,-1.367999 c 0.260417,0.06077 0.490452,0.09115 0.690105,0.09115 0.234375,0 0.538195,-0.03038 0.911459,-0.09115 l -2.30469,3.815109 c -0.798612,1.336807 -1.197918,2.217885 -1.197918,2.643233 0,0.407987 0.169271,0.61198 0.507813,0.61198 0.347223,0 0.902779,-0.394966 1.666669,-1.184898 0.763889,-0.798612 1.5408,-1.779516 2.330732,-2.942712 0.05209,-0.08681 0.09983,-0.130208 0.143229,-0.130208 0.05209,0 0.07813,0.02604 0.07813,0.07813 z m -3.580733,-2.161461 c 0,-0.425348 -0.195313,-0.638022 -0.585939,-0.638022 -0.798612,0 -1.84896,0.781251 -3.151045,2.343753 -1.293405,1.562502 -1.940107,2.825524 -1.940107,3.789067 0,0.564237 0.251736,0.846356 0.755209,0.846356 0.598959,0 1.636287,-0.993925 3.111983,-2.981775 1.206599,-1.631947 1.809899,-2.75174 1.809899,-3.359379 z"
       id="path3357"
       style="fill:none;stroke:#d08a4f;stroke-width:0.516135;stroke-dasharray:none;stroke-opacity:1"
       sodipodi:nodetypes="ccscscsscscssccsccssccsccsscsscs" /></g></svg>
