<?xml version="1.0" encoding="UTF-8" standalone="no"?>
<svg
   width="24"
   height="24"
   fill="none"
   stroke="currentColor"
   stroke-linecap="round"
   stroke-linejoin="round"
   stroke-width="1.5"
   version="1.1"
   viewBox="0 0 24 24"
   xml:space="preserve"
   id="svg137"
   sodipodi:docname="densities.svg"
   inkscape:version="1.2.1 (9c6d41e410, 2022-07-14)"
   xmlns:inkscape="http://www.inkscape.org/namespaces/inkscape"
   xmlns:sodipodi="http://sodipodi.sourceforge.net/DTD/sodipodi-0.dtd"
   xmlns="http://www.w3.org/2000/svg"
   xmlns:svg="http://www.w3.org/2000/svg"><defs
     id="defs141" /><sodipodi:namedview
     id="namedview139"
     pagecolor="#505050"
     bordercolor="#ffffff"
     borderopacity="1"
     inkscape:showpageshadow="0"
     inkscape:pageopacity="0"
     inkscape:pagecheckerboard="1"
     inkscape:deskcolor="#505050"
     showgrid="false"
     inkscape:zoom="22.627417"
     inkscape:cx="8.5294755"
     inkscape:cy="-2.0771262"
     inkscape:window-width="2520"
     inkscape:window-height="1574"
     inkscape:window-x="-11"
     inkscape:window-y="-11"
     inkscape:window-maximized="1"
     inkscape:current-layer="g133" /><g
     transform="translate(.48485 1.8556)"
     id="g135"><g
       transform="matrix(1 0 0 .93108 .050051 2.5068)"
       stroke="#000"
       stroke-linecap="round"
       stroke-width="1.0364"
       id="g133"><path
         d="M 0.51611345,18.393354 C 2.7293381,18.478974 4.2801962,17.223402 5.2919187,16.04487 5.9874691,15.234682 7.597466,11.57945 8.4336044,9.7932821 9.2696925,8.0071141 10.434799,5.5263059 11.448636,5.5263059 c 1.013736,0 2.178893,2.4808082 3.015032,4.2669762 0.836088,1.7861679 2.446095,5.4413479 3.141685,6.2515879 1.011823,1.178532 2.562682,2.434101 4.775806,2.348484"
         fill="#4773ca"
         id="path129"
         style="stroke-width:1.0364;stroke:none" /><path
         d="m 0.81843467,18.412204 c 0,0 8.55048263,-0.628579 9.48211433,-1.170434 0.931632,-0.541855 1.869344,-1.980207 2.19415,-3.60067 0.324807,-1.620463 1.128543,-6.2670398 1.336952,-9.202017 0.20841,-2.9349772 0.394851,-7.072512 0.61044,-7.072512 0.215588,0 0.480002,3.9077597 0.630453,6.9138873 0.150451,3.0061276 0.506698,7.7210857 0.916866,9.6018017 0.410168,1.880716 1.278824,4.529936 2.449601,4.529936 h 3.610286"
         fill="#c44747"
         id="path131"
         style="stroke:none;stroke-width:1.0364"
         sodipodi:nodetypes="czzzzzzzc" /></g></g></svg>
