<?xml version="1.0" encoding="UTF-8"?>
<svg width="24" height="24" fill="none" stroke="currentColor" stroke-linecap="round" stroke-linejoin="round" stroke-width="1.5" version="1.1" viewBox="0 0 24 24" xml:space="preserve"
    xmlns="http://www.w3.org/2000/svg">
    <g transform="translate(.48485 1.8556)">
        <g transform="matrix(1 0 0 .93108 .050051 2.5068)" stroke-linecap="round">
            <path d="m0.53258 18.832c2.2132 0.14151 3.7641-1.9336 4.7758-3.8814 0.69555-1.339 2.3055-7.3801 3.1417-10.332 0.83609-2.9521 2.0012-7.0522 3.015-7.0522 1.0137 0 2.1789 4.1001 3.015 7.0522 0.83609 2.9521 2.4461 8.9931 3.1417 10.332 1.0118 1.9478 2.5627 4.0229 4.7758 3.8814" fill="#accbff" stroke="#000" stroke-width="1.0364"/>
            <g transform="matrix(1.4258 0 0 1.5505 -19.793 26.022)" fill="#000" stroke="none" stroke-width=".69703" style="shape-inside:url(#rect418);white-space:pre" aria-label="ε">
                <path d="m25.795-11.423q-1.1867 0-1.7867-0.52-0.58666-0.52-0.58666-1.32 0-0.94666 0.57333-1.4133 0.57333-0.48 1.3867-0.62666v-0.04q-0.41333-0.17333-0.70666-0.52-0.29333-0.34667-0.29333-0.92 0-0.72 0.38667-1.1733 0.38666-0.45333 0.98666-0.65333 0.61333-0.21333 1.2667-0.21333 0.68 0 1.1733 0.13333 0.50666 0.12 0.93333 0.34667l-0.42666 0.90666q-0.28-0.16-0.70666-0.28-0.42667-0.13333-0.92-0.13333-0.66666 0-1.1333 0.26667-0.46667 0.26667-0.46667 0.89333 0 0.4 0.30667 0.66666t0.96 0.26667h0.81333l-0.2 0.98666h-0.76q-0.54667 0-1 0.13333-0.45333 0.12-0.73333 0.41333-0.26667 0.28-0.26667 0.77333 0 0.45333 0.32 0.77333 0.32 0.30667 1.0667 0.30667 0.61333 0 1.16-0.17333 0.56-0.18667 1.0133-0.41333v0.98666q-0.36 0.18667-0.97333 0.37333-0.61333 0.17333-1.3867 0.17333z"/>
            </g>
        </g>
    </g>
</svg>
