<?xml version="1.0" encoding="UTF-8" standalone="no"?>
<svg
   width="24"
   height="24"
   fill="none"
   stroke="currentColor"
   stroke-linecap="round"
   stroke-linejoin="round"
   stroke-width="1.5"
   version="1.1"
   viewBox="0 0 24 24"
   xml:space="preserve"
   id="svg14"
   sodipodi:docname="exponent.svg"
   inkscape:version="1.2.1 (9c6d41e410, 2022-07-14)"
   xmlns:inkscape="http://www.inkscape.org/namespaces/inkscape"
   xmlns:sodipodi="http://sodipodi.sourceforge.net/DTD/sodipodi-0.dtd"
   xmlns="http://www.w3.org/2000/svg"
   xmlns:svg="http://www.w3.org/2000/svg"><defs
     id="defs18"><rect
       x="-10.169492"
       y="10.169492"
       width="87.152542"
       height="41.79661"
       id="rect625" /><rect
       x="-10.169492"
       y="10.169492"
       width="87.152542"
       height="41.796612"
       id="rect625-2" /><rect
       x="-10.169492"
       y="10.169492"
       width="87.152542"
       height="41.796612"
       id="rect625-5" /><rect
       x="-10.169492"
       y="10.169492"
       width="87.152542"
       height="41.796612"
       id="rect625-5-6" /></defs><sodipodi:namedview
     id="namedview16"
     pagecolor="#505050"
     bordercolor="#ffffff"
     borderopacity="1"
     inkscape:showpageshadow="0"
     inkscape:pageopacity="0"
     inkscape:pagecheckerboard="1"
     inkscape:deskcolor="#505050"
     showgrid="false"
     inkscape:zoom="19.666667"
     inkscape:cx="4.5254237"
     inkscape:cy="8.1355931"
     inkscape:window-width="2520"
     inkscape:window-height="1574"
     inkscape:window-x="-11"
     inkscape:window-y="-11"
     inkscape:window-maximized="1"
     inkscape:current-layer="svg14" /><g
     aria-label="c"
     transform="matrix(2.2179941,0,0,2.2179941,-155.8441,-52.027767)"
     id="text623-6"
     style="font-stretch:semi-expanded;font-size:26.6667px;font-family:'Edwardian Script ITC';-inkscape-font-specification:'Edwardian Script ITC Semi-Expanded';text-align:end;white-space:pre;shape-inside:url(#rect625-5);display:inline;fill:none;stroke:#d08a4f;stroke-width:0.45085783;stroke-opacity:1;stroke-dasharray:none"><path
       d="m 79.4043,28.65874 q 0,0.169271 -1.83594,2.187503 -2.005211,2.187502 -3.411463,2.187502 -0.911459,0 -1.562502,-0.690105 -0.651042,-0.703126 -0.651042,-1.666669 0,-1.093751 0.885418,-2.265627 0.885418,-1.171877 2.382815,-2.018232 1.263023,-0.729168 2.057295,-0.729168 0.963542,0 0.963542,1.145835 0,0.898439 -0.611979,1.796877 -0.59896,0.898439 -1.197919,0.898439 -0.585938,0 -0.585938,-0.585938 0,-0.690105 1.197918,-1.276044 0.924481,-0.455729 0.924481,-1.197918 0,-0.585938 -0.638022,-0.585938 -1.080731,0 -2.656253,2.14844 -1.575523,2.14844 -1.575523,3.606776 0,1.22396 1.145835,1.22396 1.796877,0 4.869797,-4.049485 0.169271,-0.208333 0.247397,-0.208333 0.05208,0.01302 0.05208,0.07813 z"
       id="path3679"
       style="stroke-width:0.45085783;fill:none;stroke:#d08a4f;stroke-opacity:1;stroke-dasharray:none" /></g></svg>
