<?xml version="1.0" encoding="UTF-8" standalone="no"?>
<svg
   width="24"
   height="24"
   viewBox="0 0 24 24"
   fill="none"
   stroke="currentColor"
   stroke-width="1.5"
   stroke-linecap="round"
   stroke-linejoin="round"
   version="1.1"
   id="svg4"
   sodipodi:docname="gaugings_src.svg"
   inkscape:version="1.2.1 (9c6d41e410, 2022-07-14)"
   xml:space="preserve"
   xmlns:inkscape="http://www.inkscape.org/namespaces/inkscape"
   xmlns:sodipodi="http://sodipodi.sourceforge.net/DTD/sodipodi-0.dtd"
   xmlns="http://www.w3.org/2000/svg"
   xmlns:svg="http://www.w3.org/2000/svg"><defs
     id="defs8"><rect
       x="-4.4583682"
       y="-11.721194"
       width="35.559082"
       height="33.617534"
       id="rect13873" /><marker
       style="overflow:visible"
       id="TriangleStart"
       refX="0"
       refY="0"
       orient="auto-start-reverse"
       inkscape:stockid="TriangleStart"
       markerWidth="4"
       markerHeight="4"
       viewBox="0 0 4.9916334 5.6666178"
       inkscape:isstock="true"
       inkscape:collect="always"
       preserveAspectRatio="xMidYMid"><path
         transform="scale(0.5)"
         style="fill:context-stroke;fill-rule:evenodd;stroke:context-stroke;stroke-width:1pt"
         d="M 5.77,0 -2.88,5 V -5 Z"
         id="path135" /></marker><marker
       style="overflow:visible"
       id="TriangleStart-0"
       refX="0"
       refY="0"
       orient="auto-start-reverse"
       inkscape:stockid="TriangleStart"
       markerWidth="4"
       markerHeight="4"
       viewBox="0 0 4.9916334 5.6666178"
       inkscape:isstock="true"
       inkscape:collect="always"
       preserveAspectRatio="xMidYMid"><path
         transform="scale(0.5)"
         style="fill:context-stroke;fill-rule:evenodd;stroke:context-stroke;stroke-width:1pt"
         d="M 5.77,0 -2.88,5 V -5 Z"
         id="path135-2" /></marker><rect
       x="-4.4583683"
       y="-11.721194"
       width="35.559082"
       height="33.617535"
       id="rect13873-6" /></defs><sodipodi:namedview
     id="namedview6"
     pagecolor="#505050"
     bordercolor="#ffffff"
     borderopacity="1"
     inkscape:showpageshadow="0"
     inkscape:pageopacity="0"
     inkscape:pagecheckerboard="1"
     inkscape:deskcolor="#505050"
     showgrid="false"
     inkscape:zoom="27.812867"
     inkscape:cx="8.0897809"
     inkscape:cy="8.1257355"
     inkscape:window-width="2520"
     inkscape:window-height="1574"
     inkscape:window-x="-11"
     inkscape:window-y="-11"
     inkscape:window-maximized="1"
     inkscape:current-layer="svg4" /><path
     style="fill:none;fill-opacity:1;stroke:#000000;stroke-width:1;stroke-linecap:round;stroke-dasharray:none;stroke-opacity:1;marker-end:url(#TriangleStart)"
     d="M 2.6606391,21.536794 V 3.1640032"
     id="path12528" /><path
     style="fill:none;fill-opacity:1;stroke:#000000;stroke-width:1;stroke-linecap:round;stroke-dasharray:none;stroke-opacity:1;marker-end:url(#TriangleStart-0)"
     d="M 2.7696452,21.50084 H 21.142437"
     id="path12528-7" /><path
     id="path12985"
     style="fill:#ff0000;fill-opacity:1;stroke:none;stroke-width:1.5;stroke-linecap:round;stroke-dasharray:none;stroke-opacity:1"
     d="M 19.46875 2.3007812 A 1.2763877 1.2763877 0 0 0 18.193359 3.578125 A 1.2763877 1.2763877 0 0 0 19.46875 4.8535156 A 1.2763877 1.2763877 0 0 0 20.746094 3.578125 A 1.2763877 1.2763877 0 0 0 19.46875 2.3007812 z M 18.193359 6.3457031 A 1.2763877 1.2763877 0 0 0 16.916016 7.6230469 A 1.2763877 1.2763877 0 0 0 18.193359 8.8984375 A 1.2763877 1.2763877 0 0 0 19.46875 7.6230469 A 1.2763877 1.2763877 0 0 0 18.193359 6.3457031 z M 14.130859 12.0625 A 1.2763877 1.2763877 0 0 0 12.853516 13.339844 A 1.2763877 1.2763877 0 0 0 14.130859 14.615234 A 1.2763877 1.2763877 0 0 0 15.40625 13.339844 A 1.2763877 1.2763877 0 0 0 14.130859 12.0625 z M 10.642578 15.550781 A 1.2763877 1.2763877 0 0 0 9.9160156 15.78125 A 1.2763877 1.2763877 0 0 0 9.2402344 15.585938 A 1.2763877 1.2763877 0 0 0 7.9648438 16.863281 A 1.2763877 1.2763877 0 0 0 9.2402344 18.138672 A 1.2763877 1.2763877 0 0 0 9.9667969 17.908203 A 1.2763877 1.2763877 0 0 0 10.642578 18.103516 A 1.2763877 1.2763877 0 0 0 11.917969 16.826172 A 1.2763877 1.2763877 0 0 0 10.642578 15.550781 z M 6.9023438 16.84375 A 1.2763877 1.2763877 0 0 0 5.6523438 17.886719 A 1.2763877 1.2763877 0 0 0 5.3574219 17.851562 A 1.2763877 1.2763877 0 0 0 4.0800781 19.126953 A 1.2763877 1.2763877 0 0 0 5.3574219 20.404297 A 1.2763877 1.2763877 0 0 0 6.609375 19.361328 A 1.2763877 1.2763877 0 0 0 6.9023438 19.398438 A 1.2763877 1.2763877 0 0 0 8.1796875 18.121094 A 1.2763877 1.2763877 0 0 0 6.9023438 16.84375 z " /><g
     aria-label="Q"
     transform="translate(-22.183977,12.296467)"
     id="text13871"
     style="font-weight:bold;font-size:6.66667px;font-family:monospace;-inkscape-font-specification:'monospace Bold';text-align:end;text-anchor:end;white-space:pre;shape-inside:url(#rect13873);display:inline;fill:#ff0000;stroke:none"><path
       d="m 29.223306,-5.747393 q -0.04557,0.00977 -0.07813,0.013021 -0.0293,0.00651 -0.05859,0.00651 -0.836589,0 -1.269532,-0.6380212 -0.429688,-0.6380211 -0.429688,-1.8815113 0,-1.2467454 0.429688,-1.8847668 0.432943,-0.638021 1.276042,-0.638021 0.846355,0 1.276042,0.638021 0.432943,0.6380214 0.432943,1.8847668 0,0.8561202 -0.205078,1.4355476 -0.205078,0.5761721 -0.595703,0.8235681 l 0.605469,0.5924482 -0.657553,0.4882815 z m -0.130208,-4.1601582 q -0.367839,0 -0.53711,0.3938804 -0.169271,0.3906252 -0.169271,1.2662766 0,0.8723963 0.169271,1.2662767 0.169271,0.3906252 0.53711,0.3906252 0.371094,0 0.540365,-0.3906252 0.169271,-0.3938804 0.169271,-1.2662767 0,-0.8756514 -0.169271,-1.2662766 -0.169271,-0.3938804 -0.540365,-0.3938804 z"
       style="fill:#000000"
       id="path14160" /></g><g
     aria-label="h"
     transform="translate(-8.4927504,24.760016)"
     id="text13871-8"
     style="font-weight:bold;font-size:6.66667px;font-family:monospace;-inkscape-font-specification:'monospace Bold';text-align:end;white-space:pre;shape-inside:url(#rect13873-6);display:inline;fill:#ff0000;stroke:none"><path
       d="m 30.574218,-8.1888004 v 2.3665376 H 29.626952 V -8.042316 q 0,-0.3938804 -0.113932,-0.5631513 -0.110677,-0.1692709 -0.364583,-0.1692709 -0.260417,0 -0.406902,0.2311199 -0.146484,0.2278647 -0.146484,0.634766 v 2.0865895 h -0.947266 v -5.0651062 h 0.947266 v 1.9661464 q 0.100911,-0.3027345 0.345052,-0.4687502 0.244141,-0.1660158 0.589193,-0.1660158 0.517578,0 0.78125,0.3450523 0.263672,0.341797 0.263672,1.0221359 z"
       style="fill:#000000"
       id="path14175" /></g></svg>
