<?xml version="1.0" encoding="UTF-8"?>
<svg width="24" height="24" fill="none" stroke="currentColor" stroke-linecap="round" stroke-linejoin="round" stroke-width="1.5" version="1.1" viewBox="0 0 24 24" xml:space="preserve"
    xmlns="http://www.w3.org/2000/svg">
    <g fill="#f00" stroke="none">
        <circle cx="19.469" cy="3.5775" r="1.2764"/>
        <circle cx="18.193" cy="7.6224" r="1.2764"/>
        <circle cx="14.13" cy="13.339" r="1.2764"/>
        <circle cx="10.643" cy="16.827" r="1.2764"/>
        <circle cx="9.2403" cy="16.863" r="1.2764"/>
        <circle cx="6.9033" cy="18.121" r="1.2764"/>
        <circle cx="5.3572" cy="19.128" r="1.2764"/>
    </g>
    <g transform="translate(0 .047113)">
        <g transform="matrix(1.4256 0 0 1.4256 -33.552 16.107)" fill="currentColor" stroke="none" style="shape-inside:url(#rect13873);white-space:pre" aria-label="Q">
            <path d="m29.223-5.7474q-0.04557 0.00977-0.07813 0.013021-0.0293 0.00651-0.05859 0.00651-0.83659 0-1.2695-0.63802-0.42969-0.63802-0.42969-1.8815 0-1.2467 0.42969-1.8848 0.43294-0.63802 1.276-0.63802 0.84636 0 1.276 0.63802 0.43294 0.63802 0.43294 1.8848 0 0.85612-0.20508 1.4355-0.20508 0.57617-0.5957 0.82357l0.60547 0.59245-0.65755 0.48828zm-0.13021-4.1602q-0.36784 0-0.53711 0.39388-0.16927 0.39063-0.16927 1.2663 0 0.8724 0.16927 1.2663 0.16927 0.39063 0.53711 0.39063 0.37109 0 0.54036-0.39063 0.16927-0.39388 0.16927-1.2663 0-0.87565-0.16927-1.2663-0.16927-0.39388-0.54036-0.39388z" />
        </g>
        <g transform="translate(-15.961 16.621)" fill="currentColor" stroke="none" style="shape-inside:url(#rect13873-6);white-space:pre" aria-label="h">
            <path d="m38.006-1.7533v3.3737h-1.3504v-3.1648q0-0.5615-0.16242-0.80281-0.15778-0.24131-0.51974-0.24131-0.37124 0-0.58007 0.32948-0.20882 0.32484-0.20882 0.9049v2.9746h-1.3504v-7.2207h1.3504v2.8029q0.14386-0.43157 0.4919-0.66824t0.83994-0.23667q0.73784 0 1.1137 0.4919 0.37588 0.48726 0.37588 1.4571z" />
        </g>
        <g transform="translate(5.4598 .18588)" stroke="currentColor" fill="currentColor" stroke-linecap="round" stroke-width="1">
            <path d="m-2.6695 21.055v-18.373" fill="none"/>
            <path d="m-2.6236 1.1141 1.4868 2.8138-3.123 3.438e-4z"/>
            <g transform="rotate(90 -2.6238 21.067)">
                <path d="m-2.6695 21.055v-18.373" fill="none"/>
                <path d="m-2.6236 1.1141 1.4868 2.8138-3.123 3.438e-4z"/>
            </g>
        </g>
    </g>
    <g transform="matrix(.5494 0 0 .55531 14.982 20.808)" stroke="#000" stroke-width="1.8104">
        <circle cx="-5.4279" cy="-15.862" r="10" fill="#fff"/>
        <line x1="-5.4279" x2="-5.4279" y1="-19.862" y2="-11.862"/>
        <line x1="-9.4279" x2="-1.4279" y1="-15.862" y2="-15.862"/>
    </g>
</svg>
