<?xml version="1.0" encoding="UTF-8"?>
<svg width="24" height="24" fill="none" stroke="currentColor" stroke-linecap="round" stroke-linejoin="round" stroke-width="1.5" version="1.1" viewBox="0 0 24 24" xml:space="preserve" xmlns="http://www.w3.org/2000/svg"><g transform="translate(.48485 1.8556)"><g transform="translate(.48334 .35358)"><g transform="matrix(1.8766 0 0 1.8766 -17.566 -14.607)" fill="#d08a4f" stroke="none" stroke-width=".53287" style="shape-inside:url(#rect20299);white-space:pre" aria-label="g"><path d="m21.044 9.6628q0 0.083334-0.5625 0.71354-0.63021 0.69792-1.6302 1.2448l-0.26042 0.47396q-0.70834 1.3073-1.5885 2.0156-0.84375 0.68229-1.4583 0.68229-0.22396 0-0.36979-0.13542-0.14583-0.13542-0.14583-0.33334 0-1.0677 2.4115-2.1667 0.52084-0.23958 0.67188-0.32292l0.88542-1.6302q-0.57813 0.76563-0.81771 0.98959-0.23438 0.21875-0.48438 0.21875-0.27083 0-0.46354-0.23958-0.1875-0.23958-0.1875-0.58334 0-0.90104 1.1771-1.6354 0.78646-0.48958 1.2344-0.48958 0.3125 0 0.3125 0.34375 0 0.09375-0.04687 0.22396l0.29167-0.52604q0.14062 0.036459 0.24479 0.036459 0.13542 0 0.39584-0.036459-0.03646 0.046875-0.45834 0.78125l-1.2917 2.2292q0.68229-0.38542 1.0885-0.74479 0.41146-0.35938 0.92709-1.0365 0.07813-0.10417 0.10417-0.10417 0.02083 0.00521 0.02083 0.03125zm-1.3333-0.85417q0-0.26563-0.25521-0.26563-0.46875 0-1.2448 0.9375-0.77084 0.93229-0.77084 1.5052 0 0.34896 0.30208 0.34896 0.30729 0 1.0417-0.92709 0.92709-1.1719 0.92709-1.599zm-1.651 3.1146q-0.09896 0.05729-0.58854 0.29688-2.375 1.1771-2.375 2.1146 0 0.16146 0.11979 0.27083t0.30729 0.10938q0.57292 0 1.1146-0.58854 0.54167-0.58334 1.3594-2.099 0 0 0.0625-0.10417z"/></g><g transform="matrix(1.2183 0 0 1.2145 -1.9384 -1.4899)" fill="none" stroke="#000" stroke-linecap="round"><path d="m7.5011 6.2842c-0.49809-0.16592-1.5-0.55557-2.5556-0.25927-1.5317 0.42995-2.5138 2.3609-2.351 3.9247 0.17171 1.6495 0.92951 3.2801 1.8555 4.0579 0.92595 0.7778 1.5972 1.2408 2.2183 1.1581 0.64499-0.08586 0.7001-0.02041 1.4673 0.07732 0.81933 0.10437 1.8498-0.57943 2.7229-1.4818 0.89506-0.925 1.1116-1.9091 1.5131-3.1806 0.35198-1.1148 0.28732-2.7739-0.61113-3.7038-0.82293-0.85174-1.963-1.3704-2.9075-1.0185-0.94447 0.35186-0.8538 0.59186-1.3519 0.42594z" stroke-width=".82209"/><path d="m7.7339 6.1444s0.8125-2.5312-0.5625-3.2812" stroke-width=".8221"/></g><path d="m17.798 11.43v6.213l-3.0384-3.0383m3.0425 3.0468 3.0618-3.0579" fill="none" stroke="#d08a4f" stroke-linecap="round" stroke-width="1"/></g></g></svg>
