<?xml version="1.0" encoding="UTF-8" standalone="no"?>
<svg
   width="24"
   height="24"
   viewBox="0 0 24 24"
   fill="none"
   stroke="currentColor"
   stroke-width="1.5"
   stroke-linecap="round"
   stroke-linejoin="round"
   version="1.1"
   id="svg4"
   sodipodi:docname="hc_orifice_channel.svg"
   inkscape:version="1.2.1 (9c6d41e410, 2022-07-14)"
   xml:space="preserve"
   xmlns:inkscape="http://www.inkscape.org/namespaces/inkscape"
   xmlns:sodipodi="http://sodipodi.sourceforge.net/DTD/sodipodi-0.dtd"
   xmlns="http://www.w3.org/2000/svg"
   xmlns:svg="http://www.w3.org/2000/svg"><defs
     id="defs8"><rect
       x="-4.4583682"
       y="-11.721194"
       width="35.559082"
       height="33.617534"
       id="rect13873" /><rect
       x="-4.4583683"
       y="-11.721194"
       width="35.559082"
       height="33.617535"
       id="rect13873-6" /></defs><sodipodi:namedview
     id="namedview6"
     pagecolor="#505050"
     bordercolor="#ffffff"
     borderopacity="1"
     inkscape:showpageshadow="0"
     inkscape:pageopacity="0"
     inkscape:pagecheckerboard="1"
     inkscape:deskcolor="#505050"
     showgrid="false"
     inkscape:zoom="22.627417"
     inkscape:cx="3.314563"
     inkscape:cy="10.076272"
     inkscape:window-width="2520"
     inkscape:window-height="1574"
     inkscape:window-x="-11"
     inkscape:window-y="-11"
     inkscape:window-maximized="1"
     inkscape:current-layer="g21384"
     showguides="false" /><path
     style="fill:#000000;stroke-width:1;stroke-linecap:round;stroke-dasharray:none"
     d="M 12.727922,6.3197669 8.8609319,8.5294755 10.298171,13.893323 5.8214675,16.477949 2.1847689,12.84125 3.7890334,6.8540535 8.5675523,5.5736532 Z"
     id="path2070" /><path
     id="path2950-2"
     style="fill:#000000;fill-opacity:1;stroke-width:1;stroke-linecap:round;stroke-dasharray:none"
     d="M 8.2590728,5.2911301 V 15.701103 H 22.591223 V 5.2911301 Z m 7.1660762,0.6086038 a 4.6309572,4.5969691 0 0 1 4.630365,4.5963831 4.6309572,4.5969691 0 0 1 -4.630365,4.596382 4.6309572,4.5969691 0 0 1 -4.630367,-4.596382 4.6309572,4.5969691 0 0 1 4.630367,-4.5963831 z" /><g
     id="g21384"
     transform="translate(0.48485437,1.8555856)"><path
       style="fill:#3187ca;fill-opacity:1;stroke:none;stroke-linecap:round"
       d="M 4.8525147,11.048655 10.825369,8.9663418 h 10.491767 l 0.846313,2.0784072 z"
       id="path14433"
       sodipodi:nodetypes="ccccc" /><rect
       style="fill:#7cb4df;fill-opacity:1;stroke:none;stroke-width:1.5;stroke-linecap:round"
       id="rect11925"
       width="16.836519"
       height="5.840642"
       x="2.0745239"
       y="11.047748" /></g><path
     id="path2950"
     style="fill:#000000;fill-opacity:1;stroke-width:1;stroke-linecap:round;stroke-dasharray:none"
     d="M 1.5,5.2482175 V 18.751782 H 19.989164 V 5.2482175 Z m 9.244583,0.7894662 A 5.974158,5.9630772 0 0 1 16.717977,12 5.974158,5.9630772 0 0 1 10.744583,17.962316 5.974158,5.9630772 0 0 1 4.771187,12 5.974158,5.9630772 0 0 1 10.744583,6.0376837 Z" /><path
     style="fill:#000000;stroke-width:1;stroke-linecap:round;stroke-dasharray:none"
     d="M 20.019961,18.760427 22.60532,15.865708 V 5.2480581 h -2.673748"
     id="path1390"
     sodipodi:nodetypes="cccc" /></svg>
