<?xml version="1.0" encoding="UTF-8"?>
<svg width="24" height="24" fill="none" stroke="currentColor" stroke-linecap="round" stroke-linejoin="round" stroke-width="1.5" version="1.1" viewBox="0 0 24 24" xml:space="preserve"
  xmlns="http://www.w3.org/2000/svg">
  <path d="m1.7422 4.4688h5.8672l1.4119 5.2691-1.056 3.9411-2.7042 0.72459-2.6142-4.528z" fill="#000" stroke-linecap="round" stroke-width="1"/>
  <path d="m22.697 4.4765v11.158h-15.215v-11.158s2.9895 11.118 7.6077 11.118c4.6183 0 7.6077-11.118 7.6077-11.118z" fill="#000" stroke-linecap="round" stroke-width=".99999"/>
  <g transform="translate(1.6783 .39166)" stroke="none">
    <path d="m3.2148 11.048 5.1173-1.5914h12.13l-3.8346 1.5914z" fill="#3187ca"/>
    <rect x="2.0745" y="11.048" width="16.837" height="6.5477" fill="#7cb4df"/>
  </g>
  <path d="m20.217 4.5v13.487h-18.467v-13.487s3.6283 13.438 9.2335 13.438c5.6052 0 9.2335-13.438 9.2335-13.438z" fill="#000" stroke-linecap="round" stroke-width="1"/>
  <path d="m20.217 17.987 2.48-2.2771v-11.483h-2.3084" fill="#000" stroke-linecap="round" stroke-width="1"/>
</svg>
