<?xml version="1.0" encoding="UTF-8"?>
<svg width="24" height="24" fill="none" stroke="currentColor" stroke-linecap="round" stroke-linejoin="round" stroke-width="1.5" version="1.1" viewBox="0 0 24 24" xml:space="preserve" xmlns="http://www.w3.org/2000/svg">
  <path d="m11.798 5.1775-0.0075 6.877h2.7511l-2.6177-6.877h-0.12599zm7.1346 0-2.6176 6.877h2.7511l-0.0075-6.877h-0.12603z" fill="#000" stroke="none" stroke-width="1.5058"/><g transform="translate(0 .95225)">
    <path d="m22.5 4.5v8.7686m-3.1028 0h-7.8972v-8.7686" fill="none" stroke-linecap="round" stroke-width="1"/>
    <g stroke="#000" stroke-linecap="round" stroke-width="1">
      <path d="m1.5 17.595 10-4.3269" fill="none"/>
      <path d="m1.5 4.4889v12.805l10.086-3.481-0.0855-9.3131z" fill="#000"/>
      <path d="m19.397 17.595 3.1028-4.3269" fill="none"/>
    </g>
    <g transform="matrix(.83615 0 0 1 3.6865 0)" stroke="none" stroke-width="1.6404">
      <path d="m2.0745 11.045 9.9337-2.0784h10.492l-3.1028 2.0784z" fill="#3187ca"/>
      <rect x="2.0745" y="11.048" width="16.837" height="6.5477" fill="#7cb4df"/>
    </g>
    <path d="m1.5 4.5v13.095h17.897v-13.095" fill="none" stroke-linecap="round" stroke-width="1"/>
    <path d="m19.397 4.5h3.1028" fill="#7cb4df" stroke-linecap="round" stroke-width="1"/>
    <path d="m19.397 4.5v12.493l3.1028-3.724v-8.7686z" fill="#000" stroke="none"/>
  </g>
<path d="m1.8354 5.1828-0.018163 13.086h6.5984l-6.2781-13.086h-0.30218zm17.112 0-6.2781 13.086h6.5984l-0.018164-13.086h-0.30218z" fill="#000" stroke="none" stroke-width="1.5058"/></svg>
