<?xml version="1.0" encoding="UTF-8"?>
<svg width="24" height="24" fill="none" stroke="currentColor" stroke-linecap="round" stroke-linejoin="round" stroke-width="1.5" version="1.1" viewBox="0 0 24 24" xml:space="preserve"
    xmlns="http://www.w3.org/2000/svg">
    <g transform="translate(.48485 1.8556)">
        <g transform="matrix(1 0 0 .93108 .050051 2.5068)" stroke="#000" stroke-linecap="round" stroke-width="1.0364">
            <g transform="matrix(.70071 0 0 .69915 3.4314 -4.3596)" stroke-width="1.4807">
                <g transform="translate(-3.9983)" stroke-width="1.4807">
                    <g transform="matrix(3.3163 0 0 3.4378 -47.101 -19.055)" stroke="#d08a4f" stroke-width=".43852" style="shape-inside:url(#rect20009);white-space:pre" aria-label="C">
                        <path d="m20.327 14.376q-0.4375 0.21354-0.88542 0.31771-0.44271 0.10938-0.91667 0.10938-1.1979 0-1.8594-0.69271-0.65625-0.69271-0.65625-1.9427 0-1.1458 0.36458-2.2708 0.36458-1.125 0.95834-1.8385 0.55729-0.67709 1.2292-1 0.67188-0.32292 1.5313-0.32292 0.41667 0 0.82813 0.10938 0.41146 0.10938 0.80209 0.31771l-0.21354 1.0781q-0.33334-0.32813-0.70313-0.48958-0.36979-0.16146-0.78646-0.16146-0.49479 0-0.91667 0.21354-0.42188 0.20833-0.79167 0.64063-0.54167 0.64063-0.875 1.6406-0.32813 1-0.32813 2.0052 0 0.90104 0.40625 1.3802 0.40625 0.47917 1.1719 0.47917 0.44271 0 0.91146-0.16667 0.47396-0.16667 0.9323-0.48438z"/>
                    </g>
                </g>
            </g>
        </g>
    </g>
</svg>
