<?xml version="1.0" encoding="UTF-8" standalone="no"?>
<svg
   width="24"
   height="24"
   fill="none"
   stroke="currentColor"
   stroke-linecap="round"
   stroke-linejoin="round"
   stroke-width="1.5"
   version="1.1"
   viewBox="0 0 24 24"
   xml:space="preserve"
   id="svg9451"
   sodipodi:docname="hydrograph.svg"
   inkscape:version="1.2.1 (9c6d41e410, 2022-07-14)"
   xmlns:inkscape="http://www.inkscape.org/namespaces/inkscape"
   xmlns:sodipodi="http://sodipodi.sourceforge.net/DTD/sodipodi-0.dtd"
   xmlns="http://www.w3.org/2000/svg"
   xmlns:svg="http://www.w3.org/2000/svg"><defs
     id="defs9455" /><sodipodi:namedview
     id="namedview9453"
     pagecolor="#505050"
     bordercolor="#ffffff"
     borderopacity="1"
     inkscape:showpageshadow="0"
     inkscape:pageopacity="0"
     inkscape:pagecheckerboard="1"
     inkscape:deskcolor="#505050"
     showgrid="false"
     inkscape:zoom="39.333333"
     inkscape:cx="21.050847"
     inkscape:cy="15.61017"
     inkscape:window-width="2520"
     inkscape:window-height="1574"
     inkscape:window-x="-11"
     inkscape:window-y="-11"
     inkscape:window-maximized="1"
     inkscape:current-layer="svg9451" /><g
     id="g9592"
     transform="matrix(0.86152134,0,0,0.99108993,1.0006457,-0.02396994)"
     style="stroke-width:1.62332"><path
       d="m 2.74,21.036 0.88388,0.0221 c 0,0 3.9438923,-0.450461 5.8186761,-2.332528 2.1820269,-2.190504 2.3164589,-5.74553 4.7002119,-3.68333 1.669816,1.444569 3.097509,2.0292 4.622309,2.27222 1.4429,0.06328 1.341913,-0.157479 1.341913,-0.157479 0.08544,-0.463032 0.09013,-0.763354 -0.07814,-0.770025 -0.572152,-0.02268 -1.067275,-0.198387 -1.612111,-0.571769 -1.035939,-0.709942 -1.70147,-1.780411 -2.405892,-3.368945 C 15.178661,10.569582 14.933376,9.7389894 14.180028,6.4304449 13.739451,4.4955274 13.79305,3.7259467 13.343503,2.2451039 12.926108,0.87017403 12.346041,0.68200877 11.804666,2.2909279 11.450752,3.3427282 11.29545,4.6125095 10.94138,6.3455095 c -0.41984,2.055 -0.750174,3.40322 -1.333709,5.7036365 C 9.0376437,14.296317 8.3552981,16.546871 7.6776989,17.375322 6.9506266,18.26426 3.15981,20.48355 3.15981,20.48355 c -0.35935,0.01528 -0.6878,0.0021 -0.41984,0.55243 z"
       fill="#ffacac"
       stroke="none"
       id="path9425"
       sodipodi:nodetypes="ccssccsssssscssccc"
       style="stroke-width:1.71889" /><path
       d="M 3.1378,21.169007 C 6.2502,19.141379 8.2383287,19.133514 9.4215287,17.222912 10.604729,15.312309 12.709365,5.9995573 12.709365,5.9995573 c 0,0 0.613615,3.7002298 1.203363,4.9319947 1.670461,3.488973 2.394207,4.626087 4.228818,5.52038 0.724301,0.353066 1.203366,0.406705 1.867347,0.381053"
       fill="none"
       stroke="#f50000"
       stroke-linecap="round"
       stroke-width="1.08221"
       id="path9427"
       sodipodi:nodetypes="cscssc" /></g><g
     transform="translate(0 .047113)"
     id="g9441"><g
       transform="translate(5.4598 .18588)"
       stroke="#000"
       stroke-linecap="round"
       stroke-width="1"
       id="g9439"><path
         d="m-2.6695 21.055v-18.373"
         fill="none"
         id="path9429" /><path
         d="m-2.6236 1.1141 1.4868 2.8138-3.123 3.438e-4z"
         fill="#000"
         id="path9431" /><g
         transform="rotate(90 -2.6238 21.067)"
         id="g9437"><path
           d="m-2.6695 21.055v-18.373"
           fill="none"
           id="path9433" /><path
           d="m-2.6236 1.1141 1.4868 2.8138-3.123 3.438e-4z"
           fill="#000"
           id="path9435" /></g></g></g><g
     transform="matrix(1.1061539,0,0,1.1061539,3.335564,-2.3536774)"
     fill="#000000"
     stroke="none"
     style="white-space:pre;shape-inside:url(#rect377);shape-padding:0.331456;stroke-width:1.33726"
     aria-label="t"
     id="g9445"><path
       d="m 15.865,11.296 v 1.6563 h 1.9948 v 1.1719 H 15.865 v 2.7604 q 0,0.39063 0.1875,0.5625 0.19271,0.16667 0.63542,0.16667 h 1.1719 v 1.1719 h -1.2813 q -1.3125,0 -1.776,-0.41667 -0.46354,-0.42188 -0.46354,-1.5573 v -2.6875 h -1.4896 v -1.1719 h 1.4896 V 11.296 Z"
       id="path9443"
       style="stroke-width:1.33726" /></g><g
     transform="matrix(1.4256,0,0,1.4256,-33.958182,16.142318)"
     fill="#ff0000"
     stroke="none"
     style="white-space:pre;shape-inside:url(#rect13873)"
     aria-label="Q"
     id="g9449"><path
       d="m 29.223,-5.7474 q -0.04557,0.00977 -0.07813,0.013021 -0.0293,0.00651 -0.05859,0.00651 -0.83659,0 -1.2695,-0.63802 -0.42969,-0.63802 -0.42969,-1.8815 0,-1.2467 0.42969,-1.8848 0.43294,-0.63802 1.276,-0.63802 0.84636,0 1.276,0.63802 0.43294,0.63802 0.43294,1.8848 0,0.85612 -0.20508,1.4355 -0.20508,0.57617 -0.5957,0.82357 l 0.60547,0.59245 -0.65755,0.48828 z m -0.13021,-4.1602 q -0.36784,0 -0.53711,0.39388 -0.16927,0.39063 -0.16927,1.2663 0,0.8724 0.16927,1.2663 0.16927,0.39063 0.53711,0.39063 0.37109,0 0.54036,-0.39063 0.16927,-0.39388 0.16927,-1.2663 0,-0.87565 -0.16927,-1.2663 -0.16927,-0.39388 -0.54036,-0.39388 z"
       fill="#000000"
       id="path9447" /></g></svg>
