<?xml version="1.0" encoding="UTF-8"?>
<svg width="24" height="24" stroke-linecap="round" stroke-linejoin="round" stroke-width="1.5" version="1.1" viewBox="0 0 24 24" xml:space="preserve" xmlns="http://www.w3.org/2000/svg">
  <path d="m4.9617 22.202-0.91684-6.5078h9.0246l-0.791 6.6156z" fill="#d5e0ff"/>
  <g fill="none" stroke="#2c55ff" stroke-linecap="round" stroke-width="1">
    <path d="m2.3011 4.1707h19.272"/>
    <path d="m3.5595 10.858h9.7796"/>
    <path d="m4.5662 15.676h8.1976"/>
  </g>
  <path d="m6.5079 19.38a1.4562 1.4741 0 0 0-0.48438 0.08594 1.4428 1.0157 0 0 0-0.30664-0.02344 1.4428 1.0157 0 0 0-1.4434 1.0156 1.4428 1.0157 0 0 0 0.88281 0.93555 1.4562 1.4741 0 0 0 1.3516 0.93359 1.4562 1.4741 0 0 0 1.2285-0.68359 1.0832 1.0966 0 0 0 0.89648 0.48633 1.0832 1.0966 0 0 0 0.49023-0.12109 1.4428 1.0157 0 0 0 1.2324 0.49023 1.4428 1.0157 0 0 0 1.3438-0.65234 0.80799 0.81797 0 0 0 0.32226 0.06836 0.80799 0.81797 0 0 0 0.80664-0.81836 0.80799 0.81797 0 0 0-0.80664-0.81836 0.80799 0.81797 0 0 0-0.43359 0.12695 0.80799 0.81797 0 0 0-0.38867-0.09961 0.80799 0.81797 0 0 0-0.51367 0.1875 1.4428 1.0157 0 0 0-0.33008-0.02539 1.4428 1.0157 0 0 0-0.72461 0.13672 1.0832 1.0966 0 0 0-0.87695-0.66016 0.80799 0.81797 0 0 0-0.70117-0.41211 0.80799 0.81797 0 0 0-0.56055 0.23242 1.4562 1.4741 0 0 0-0.98438-0.38477z" fill="#d65702"/>
  <path d="m2.0135 2.4449s3.0202 19.883 3.0561 19.739c0.035955-0.14382 7.2269 0 7.2269 0l1.6899-12.8h7.91v-6.9033" fill="none" stroke="#000" stroke-linecap="round" stroke-width="1"/>
<g transform="matrix(1.1061 0 0 1.1061 30.607 11.155)"><rect x="-19.739" y="5.5894" width="12.872" height="5.161" fill="#fff" stroke-linecap="round" stroke-width=".90546"/><g transform="matrix(1.32 0 0 1.32 5.6579 -3.3908)" stroke-width=".68596" style="shape-inside:url(#rect440);white-space:pre" aria-label="BAC"><path d="m-18.019 7.3636h0.888q0.568 0 0.86 0.16 0.296 0.16 0.296 0.564 0 0.244-0.116 0.412-0.112 0.168-0.324 0.204v0.02q0.14 0.032 0.256 0.104 0.12 0.068 0.188 0.204t0.068 0.36q0 0.388-0.284 0.608-0.28 0.22-0.764 0.22h-1.068zm0.604 1.132h0.352q0.264 0 0.364-0.08 0.104-0.084 0.104-0.248t-0.12-0.236-0.38-0.072h-0.32zm0 0.48v0.744h0.396q0.272 0 0.38-0.104 0.108-0.108 0.108-0.284 0-0.16-0.112-0.256-0.108-0.1-0.396-0.1z"/><path d="m-13.583 10.22-0.208-0.68h-1.04l-0.208 0.68h-0.652l1.008-2.868h0.74l1.012 2.868zm-0.352-1.188-0.208-0.664q-0.02-0.068-0.052-0.172t-0.064-0.212-0.052-0.188q-0.02 0.08-0.056 0.2-0.032 0.116-0.064 0.224-0.028 0.104-0.044 0.148l-0.204 0.664z"/><path d="m-11.439 7.8276q-0.348 0-0.532 0.26t-0.184 0.712q0 0.456 0.168 0.708 0.172 0.248 0.548 0.248 0.172 0 0.348-0.04t0.38-0.112v0.508q-0.188 0.076-0.372 0.112t-0.412 0.036q-0.444 0-0.728-0.18-0.284-0.184-0.42-0.512-0.136-0.332-0.136-0.772 0-0.432 0.156-0.764t0.452-0.52q0.3-0.188 0.732-0.188 0.212 0 0.424 0.056 0.216 0.052 0.412 0.144l-0.196 0.492q-0.16-0.076-0.324-0.132-0.16-0.056-0.316-0.056z"/></g></g><g transform="matrix(.5494 0 0 .55531 14.982 20.808)" fill="#fff" stroke="#000" stroke-width="1.8104">
    <circle cx="-5.4279" cy="-15.862" r="10"/>
    <line x1="-5.4279" x2="-5.4279" y1="-19.862" y2="-11.862"/>
    <line x1="-9.4279" x2="-1.4279" y1="-15.862" y2="-15.862"/>
  </g></svg>
