<?xml version="1.0" encoding="UTF-8"?>
<svg width="24" height="24" fill="none" stroke="currentColor" stroke-linecap="round" stroke-linejoin="round" stroke-width="1.5" version="1.1" viewBox="0 0 24 24" xml:space="preserve"
  xmlns="http://www.w3.org/2000/svg">
  <g transform="matrix(.86152 0 0 .99109 1.0006 -.02397)">
    <path d="m2.74 21.036 0.88388 0.0221s3.9439-0.45046 5.8187-2.3325c2.182-2.1905 2.3165-5.7455 4.7002-3.6833 1.6698 1.4446 3.0975 2.0292 4.6223 2.2722 1.4429 0.06328 1.3419-0.15748 1.3419-0.15748 0.08544-0.46303 0.09013-0.76335-0.07814-0.77002-0.57215-0.02268-1.0673-0.19839-1.6121-0.57177-1.0359-0.70994-1.7015-1.7804-2.4059-3.3689-0.83219-1.8767-1.0775-2.7073-1.8308-6.0158-0.44058-1.9349-0.38698-2.7045-0.83652-4.1853-0.4174-1.3749-0.99746-1.5631-1.5388 0.045824-0.35391 1.0518-0.50922 2.3216-0.86329 4.0546-0.41984 2.055-0.75017 3.4032-1.3337 5.7036-0.57003 2.2472-1.2524 4.4977-1.93 5.3262-0.72707 0.88894-4.5179 3.1082-4.5179 3.1082-0.35935 0.01528-0.6878 0.0021-0.41984 0.55243z" fill="#ffacac" stroke="none" stroke-width="1.7189"/>
    <path d="m3.1378 21.169c3.1124-2.0276 5.1005-2.0355 6.2837-3.9461 1.1832-1.9106 3.2878-11.223 3.2878-11.223s0.61362 3.7002 1.2034 4.932c1.6705 3.489 2.3942 4.6261 4.2288 5.5204 0.7243 0.35307 1.2034 0.4067 1.8673 0.38105" fill="none" stroke="#f50000" stroke-linecap="round" stroke-width="1.0822"/>
  </g>
  <g transform="translate(0 .047113)">
    <g transform="translate(5.4598 .18588)" stroke="#000" stroke-linecap="round" stroke-width="1">
      <path d="m-2.6695 21.055v-18.373" fill="none"/>
      <path d="m-2.6236 1.1141 1.4868 2.8138-3.123 3.438e-4z" fill="#000"/>
      <g transform="rotate(90 -2.6238 21.067)">
        <path d="m-2.6695 21.055v-18.373" fill="none"/>
        <path d="m-2.6236 1.1141 1.4868 2.8138-3.123 3.438e-4z" fill="#000"/>
      </g>
    </g>
  </g>
  <g transform="matrix(1.1062 0 0 1.1062 3.3356 -2.3537)" fill="#000" stroke="none" stroke-width="1.3373" style="shape-inside:url(#rect377);shape-padding:0.331456;white-space:pre" aria-label="t">
    <path d="m15.865 11.296v1.6563h1.9948v1.1719h-1.9948v2.7604q0 0.39063 0.1875 0.5625 0.19271 0.16667 0.63542 0.16667h1.1719v1.1719h-1.2813q-1.3125 0-1.776-0.41667-0.46354-0.42188-0.46354-1.5573v-2.6875h-1.4896v-1.1719h1.4896v-1.6563z" stroke-width="1.3373"/>
  </g>
  <g transform="matrix(1.4256 0 0 1.4256 -33.958 16.142)" fill="#f00" stroke="none" style="shape-inside:url(#rect13873);white-space:pre" aria-label="Q">
    <path d="m29.223-5.7474q-0.04557 0.00977-0.07813 0.013021-0.0293 0.00651-0.05859 0.00651-0.83659 0-1.2695-0.63802-0.42969-0.63802-0.42969-1.8815 0-1.2467 0.42969-1.8848 0.43294-0.63802 1.276-0.63802 0.84636 0 1.276 0.63802 0.43294 0.63802 0.43294 1.8848 0 0.85612-0.20508 1.4355-0.20508 0.57617-0.5957 0.82357l0.60547 0.59245-0.65755 0.48828zm-0.13021-4.1602q-0.36784 0-0.53711 0.39388-0.16927 0.39063-0.16927 1.2663 0 0.8724 0.16927 1.2663 0.16927 0.39063 0.53711 0.39063 0.37109 0 0.54036-0.39063 0.16927-0.39388 0.16927-1.2663 0-0.87565-0.16927-1.2663-0.16927-0.39388-0.54036-0.39388z" fill="#000"/>
  </g>
  <g transform="matrix(.5494 0 0 .55531 14.982 20.808)" stroke-width="1.8104">
    <circle cx="-5.4279" cy="-15.862" r="10" fill="#fff"/>
    <line x1="-5.4279" x2="-5.4279" y1="-19.862" y2="-11.862"/>
    <line x1="-9.4279" x2="-1.4279" y1="-15.862" y2="-15.862"/>
  </g>
</svg>
