<?xml version="1.0" encoding="UTF-8"?>
<svg width="24" height="24" fill="none" stroke="currentColor" stroke-linecap="round" stroke-linejoin="round" stroke-width="1.5" version="1.1" viewBox="0 0 24 24" xml:space="preserve"
    xmlns="http://www.w3.org/2000/svg">
    <path d="m2.5168 20.638s2.8759-3.1158 4.9321-5.3902c2.0096-2.2227 2.9663-3.0561 4.3865-6.2921 1.0617-2.6016 1.9341-5.3307 2.3011-8.1257l6.7531 1.9026 2.4367 0.894c-0.9356 5.1865-3.2739 8.0458-4.8254 10.199s-3.8932 4.2265-6.0947 5.0621c-2.2549 0.85587-5.8984 1.6959-7.6962 2.1273s-2.2292 0.03596-2.2292 0.03596z" fill="#accbff" stroke="none"/>
    <path d="m2.9123 21.141c6.6516-3.0561 8.0939-4.1479 10.818-7.4089 2.7063-3.24 5.1366-9.2295 5.5681-10.596" fill="none" stroke="#001af5" stroke-linecap="round" stroke-width="1"/>
    <g transform="translate(0 .047113)">
        <g transform="matrix(1.4256 0 0 1.4256 -33.552 16.107)" fill="#f00" stroke="none" style="shape-inside:url(#rect13873);white-space:pre" aria-label="Q">
            <path d="m29.223-5.7474q-0.04557 0.00977-0.07813 0.013021-0.0293 0.00651-0.05859 0.00651-0.83659 0-1.2695-0.63802-0.42969-0.63802-0.42969-1.8815 0-1.2467 0.42969-1.8848 0.43294-0.63802 1.276-0.63802 0.84636 0 1.276 0.63802 0.43294 0.63802 0.43294 1.8848 0 0.85612-0.20508 1.4355-0.20508 0.57617-0.5957 0.82357l0.60547 0.59245-0.65755 0.48828zm-0.13021-4.1602q-0.36784 0-0.53711 0.39388-0.16927 0.39063-0.16927 1.2663 0 0.8724 0.16927 1.2663 0.16927 0.39063 0.53711 0.39063 0.37109 0 0.54036-0.39063 0.16927-0.39388 0.16927-1.2663 0-0.87565-0.16927-1.2663-0.16927-0.39388-0.54036-0.39388z" fill="currentColor"/>
        </g>
        <g transform="translate(-15.961 16.621)" fill="#f00" stroke="none" style="shape-inside:url(#rect13873-6);white-space:pre" aria-label="h">
            <path d="m38.006-1.7533v3.3737h-1.3504v-3.1648q0-0.5615-0.16242-0.80281-0.15778-0.24131-0.51974-0.24131-0.37124 0-0.58007 0.32948-0.20882 0.32484-0.20882 0.9049v2.9746h-1.3504v-7.2207h1.3504v2.8029q0.14386-0.43157 0.4919-0.66824t0.83994-0.23667q0.73784 0 1.1137 0.4919 0.37588 0.48726 0.37588 1.4571z" fill="currentColor"/>
        </g>
        <g transform="translate(5.4598 .18588)" stroke="currentColor" stroke-linecap="round" stroke-width="1">
            <path d="m-2.6695 21.055v-18.373" fill="none"/>
            <path d="m-2.6236 1.1141 1.4868 2.8138-3.123 3.438e-4z" fill="currentColor"/>
            <g transform="rotate(90 -2.6238 21.067)">
                <path d="m-2.6695 21.055v-18.373" fill="none"/>
                <path d="m-2.6236 1.1141 1.4868 2.8138-3.123 3.438e-4z" fill="currentColor"/>
            </g>
        </g>
    </g>
</svg>
