<?xml version="1.0" encoding="UTF-8"?>
<svg width="24" height="24" stroke="currentColor" stroke-linecap="round" stroke-linejoin="round" stroke-width="1.5" version="1.1" viewBox="0 0 24 24" xml:space="preserve"
    xmlns="http://www.w3.org/2000/svg">
    <g transform="translate(1.7977 .71909)" stroke="none" style="shape-inside:url(#rect5590);white-space:pre" aria-label="f">
        <path d="m10.139 10.118-0.14844 1.0312q-0.58594-0.5625-1.1016-0.5625-0.32812 0-0.5625 0.32031t-0.36719 1.2969l-0.13281 0.90625h1.75l-0.11719 0.96094h-1.75l-1.0625 7.5391h-1.0703l1.0703-7.5391h-1.0703l0.11719-0.96094h1.0781l0.10156-0.75q0.1875-1.3203 0.39844-1.7656 0.21094-0.44531 0.625-0.71094 0.41406-0.27344 0.91406-0.27344 0.65625 0 1.3281 0.50781z"/>
    </g>
    <g transform="translate(-10.535 -1.7977)" fill="#d08a4f" style="shape-inside:url(#rect4408);white-space:pre" aria-label="Q">
        <path d="m16.079 13.677-1.296-1.932q-0.06 0.012-0.108 0.012-0.036 0-0.084 0-1.536 0-2.364-0.888-0.816-0.9-0.816-2.436 0-1.104 0.288-2.1 0.3-0.996 0.864-1.752 0.564-0.768 1.368-1.2 0.804-0.444 1.812-0.444 1.452 0 2.268 0.912 0.816 0.9 0.816 2.46 0 1.236-0.348 2.316-0.348 1.068-1.02 1.836t-1.62 1.092l1.608 2.124zm-1.452-2.868q0.732 0 1.296-0.36 0.576-0.36 0.96-0.984 0.396-0.636 0.6-1.452t0.204-1.728q0-1.14-0.54-1.764-0.54-0.636-1.476-0.636-0.72 0-1.296 0.36-0.576 0.348-0.984 0.972-0.408 0.612-0.624 1.44-0.216 0.816-0.216 1.752 0 1.14 0.552 1.776 0.552 0.624 1.524 0.624z" stroke="none"/>
    </g>
    <g transform="translate(1.9939 9.6179)" fill="#d08a4f" style="shape-inside:url(#rect4408-1);white-space:pre" aria-label="h">
        <path d="m12.587 11.637 1.932-9.12h1.056l-0.516 2.364q-0.072 0.36-0.18 0.756-0.108 0.384-0.204 0.768h0.06q0.228-0.3 0.54-0.6t0.708-0.504q0.408-0.204 0.924-0.204 0.744 0 1.176 0.42 0.444 0.408 0.444 1.224 0 0.24-0.048 0.48-0.036 0.24-0.084 0.504l-0.84 3.912h-1.056l0.852-4.032q0.108-0.54 0.108-0.792 0-0.396-0.204-0.612-0.192-0.228-0.636-0.228-0.408 0-0.888 0.288-0.468 0.276-0.876 0.912-0.396 0.636-0.624 1.692l-0.588 2.772z" stroke="none"/>
    </g>
    <g stroke="none">
        <g transform="translate(-3.5235 -9.0606)" style="shape-inside:url(#rect5532);white-space:pre" aria-label="=">
            <path d="m18.891 13.488v0.80274h-5.9297v-0.80274zm0 2.5781v0.80274h-5.9297v-0.80274z"/>
        </g>
        <g transform="translate(1.0786 -13.771)" style="shape-inside:url(#rect5604);white-space:pre" aria-label="(">
            <path d="m13.553 24.941h0.94922q-1.0547 1.6816-1.6641 3.8613-0.60938 2.1738-0.60938 4.541 0 1.7578 0.36914 3.0938h-0.90234q-0.36328-1.3008-0.36328-2.9648 0-2.2383 0.58594-4.4824 0.5918-2.25 1.6348-4.0488z"/>
        </g>
        <g transform="translate(9.9861 -13.683)" style="shape-inside:url(#rect5604-9);white-space:pre" aria-label=")">
            <path d="m10.857 36.437h-0.94922q1.0547-1.6758 1.6641-3.8672 0.61523-2.1973 0.61523-4.4941 0-1.7871-0.375-3.1348h0.90234q0.35156 1.2715 0.35156 3 0 2.2383-0.58594 4.4707-0.58008 2.2266-1.623 4.0254z"/>
        </g>
    </g>
</svg>
