<?xml version="1.0" encoding="UTF-8"?>
<svg width="24" height="24" fill="none" stroke="currentColor" stroke-linecap="round" stroke-linejoin="round" stroke-width="1.5" version="1.1" viewBox="0 0 24 24" xml:space="preserve"
    xmlns="http://www.w3.org/2000/svg">
    <g transform="translate(.48485 1.8556)">
        <g transform="matrix(1 0 0 .93108 .050051 2.5068)" stroke="#000" stroke-linecap="round" stroke-width="1.0364">
            <path d="m21.818 6.8251h-20.705" fill="#accbff" stroke-linecap="round" stroke-width="1.0741"/>
            <g transform="translate(-.054376)" fill="#accbff" stroke-linecap="round" stroke-width="1.0741">
                <path d="m8.1672 18.964h-5.5373"/>
                <path d="m20.409 18.964h-5.5373"/>
            </g>
            <g transform="translate(-.054376 -3.01)" fill="#accbff" stroke-linecap="round" stroke-width="1.0741">
                <path d="m8.1672 18.964h-5.5373"/>
                <path d="m20.409 18.964h-5.5373"/>
            </g>
            <g transform="translate(-.054376 -6.0201)" fill="#accbff" stroke-linecap="round" stroke-width="1.0741">
                <path d="m8.1672 18.964h-5.5373"/>
                <path d="m20.409 18.964h-5.5373"/>
            </g>
            <g transform="translate(-.054376 -9.0301)" fill="#accbff" stroke-linecap="round" stroke-width="1.0741">
                <path d="m8.1672 18.964h-5.5373"/>
                <path d="m20.409 18.964h-5.5373"/>
            </g>
            <g transform="matrix(1.4256 0 0 1.5311 -36.453 12.903)" fill="#f00" stroke="none" style="shape-inside:url(#rect13873);white-space:pre" aria-label="Q">
                <path d="m29.223-5.7474q-0.04557 0.00977-0.07813 0.013021-0.0293 0.00651-0.05859 0.00651-0.83659 0-1.2695-0.63802-0.42969-0.63802-0.42969-1.8815 0-1.2467 0.42969-1.8848 0.43294-0.63802 1.276-0.63802 0.84636 0 1.276 0.63802 0.43294 0.63802 0.43294 1.8848 0 0.85612-0.20508 1.4355-0.20508 0.57617-0.5957 0.82357l0.60547 0.59245-0.65755 0.48828zm-0.13021-4.1602q-0.36784 0-0.53711 0.39388-0.16927 0.39063-0.16927 1.2663 0 0.8724 0.16927 1.2663 0.16927 0.39063 0.53711 0.39063 0.37109 0 0.54036-0.39063 0.16927-0.39388 0.16927-1.2663 0-0.87565-0.16927-1.2663-0.16927-0.39388-0.54036-0.39388z" fill="#000"/>
            </g>
            <g transform="matrix(1 0 0 1.074 -18.84 3.2745)" fill="#f00" stroke="none" style="shape-inside:url(#rect13873-6);white-space:pre" aria-label="h">
                <path d="m38.006-1.7533v3.3737h-1.3504v-3.1648q0-0.5615-0.16242-0.80281-0.15778-0.24131-0.51974-0.24131-0.37124 0-0.58007 0.32948-0.20882 0.32484-0.20882 0.9049v2.9746h-1.3504v-7.2207h1.3504v2.8029q0.14386-0.43157 0.4919-0.66824 0.34804-0.23667 0.83994-0.23667 0.73784 0 1.1137 0.4919 0.37588 0.48726 0.37588 1.4571z" fill="#000"/>
            </g>
        </g>
    </g>
</svg>
