<?xml version="1.0" encoding="UTF-8"?>
<svg width="24" height="24" stroke="currentColor" stroke-linecap="round" stroke-linejoin="round" stroke-width="1.5" version="1.1" viewBox="0 0 24 24" xml:space="preserve" xmlns="http://www.w3.org/2000/svg">
    <g fill="#fffe20" stroke="#fffe20"><circle cx="8.1413" cy="18.874" r=".52792"/><circle cx="11.475" cy="17.624" r=".52792"/><circle cx="14.448" cy="16.405" r=".52792"/><circle cx="17.028" cy="15.028" r=".52792"/><circle cx="20.881" cy="9.2124" r=".52792"/><circle cx="13.341" cy="17.659" r=".52792"/></g><path d="m19.469 2.3008a1.2764 1.2764 0 0 0-1.2754 1.2773 1.2764 1.2764 0 0 0 1.2754 1.2754 1.2764 1.2764 0 0 0 1.2773-1.2754 1.2764 1.2764 0 0 0-1.2773-1.2773zm-1.2754 4.0449a1.2764 1.2764 0 0 0-1.2773 1.2773 1.2764 1.2764 0 0 0 1.2773 1.2754 1.2764 1.2764 0 0 0 1.2754-1.2754 1.2764 1.2764 0 0 0-1.2754-1.2773zm-4.0625 5.7168a1.2764 1.2764 0 0 0-1.2773 1.2773 1.2764 1.2764 0 0 0 1.2773 1.2754 1.2764 1.2764 0 0 0 1.2754-1.2754 1.2764 1.2764 0 0 0-1.2754-1.2773zm-3.4883 3.4883a1.2764 1.2764 0 0 0-0.72656 0.23047 1.2764 1.2764 0 0 0-0.67578-0.19531 1.2764 1.2764 0 0 0-1.2754 1.2773 1.2764 1.2764 0 0 0 1.2754 1.2754 1.2764 1.2764 0 0 0 0.72656-0.23047 1.2764 1.2764 0 0 0 0.67578 0.19531 1.2764 1.2764 0 0 0 1.2754-1.2773 1.2764 1.2764 0 0 0-1.2754-1.2754zm-3.7402 1.293a1.2764 1.2764 0 0 0-1.25 1.043 1.2764 1.2764 0 0 0-0.29492-0.035157 1.2764 1.2764 0 0 0-1.2773 1.2754 1.2764 1.2764 0 0 0 1.2773 1.2773 1.2764 1.2764 0 0 0 1.252-1.043 1.2764 1.2764 0 0 0 0.29297 0.03711 1.2764 1.2764 0 0 0 1.2773-1.2773 1.2764 1.2764 0 0 0-1.2773-1.2773z" fill="#f00" stroke="none"/>
    <g transform="translate(0 .047113)" fill="currentColor">
        <g transform="matrix(1.4256 0 0 1.4256 -33.552 16.107)" stroke="none" style="shape-inside:url(#rect13873);white-space:pre" aria-label="Q">
            <path d="m29.223-5.7474q-0.04557 0.00977-0.07813 0.013021-0.0293 0.00651-0.05859 0.00651-0.83659 0-1.2695-0.63802-0.42969-0.63802-0.42969-1.8815 0-1.2467 0.42969-1.8848 0.43294-0.63802 1.276-0.63802 0.84636 0 1.276 0.63802 0.43294 0.63802 0.43294 1.8848 0 0.85612-0.20508 1.4355-0.20508 0.57617-0.5957 0.82357l0.60547 0.59245-0.65755 0.48828zm-0.13021-4.1602q-0.36784 0-0.53711 0.39388-0.16927 0.39063-0.16927 1.2663 0 0.8724 0.16927 1.2663 0.16927 0.39063 0.53711 0.39063 0.37109 0 0.54036-0.39063 0.16927-0.39388 0.16927-1.2663 0-0.87565-0.16927-1.2663-0.16927-0.39388-0.54036-0.39388z"/>
        </g>
        <g transform="translate(-15.961 16.621)" stroke="none" style="shape-inside:url(#rect13873-6);white-space:pre" aria-label="h">
            <path d="m38.006-1.7533v3.3737h-1.3504v-3.1648q0-0.5615-0.16242-0.80281-0.15778-0.24131-0.51974-0.24131-0.37124 0-0.58007 0.32948-0.20882 0.32484-0.20882 0.9049v2.9746h-1.3504v-7.2207h1.3504v2.8029q0.14386-0.43157 0.4919-0.66824t0.83994-0.23667q0.73784 0 1.1137 0.4919 0.37588 0.48726 0.37588 1.4571z"/>
        </g>
        <g transform="translate(5.4598 .18588)" stroke="currentColor" stroke-linecap="round" stroke-width="1">
            <path d="m-2.6695 21.055v-18.373" fill="none"/>
            <path d="m-2.6236 1.1141 1.4868 2.8138-3.123 3.438e-4z"/>
            <g transform="rotate(90 -2.6238 21.067)">
                <path d="m-2.6695 21.055v-18.373" fill="none"/>
                <path d="m-2.6236 1.1141 1.4868 2.8138-3.123 3.438e-4z"/>
            </g>
        </g>
    </g>
<g transform="rotate(-6.8564 12.635 13.33)" fill="#4fd057" stroke="#4fd057"><circle cx="4.846" cy="14.958" r=".52792"/><circle cx="6.9365" cy="14.96" r=".52792"/><circle cx="8.4492" cy="13.119" r=".52792"/><circle cx="10.771" cy="12.028" r=".52792"/><circle cx="14.028" cy="10.001" r=".52792"/><circle cx="16.206" cy="6.9704" r=".52792"/><circle cx="17.933" cy="4.0668" r=".52792"/></g></svg>
