<?xml version="1.0" encoding="UTF-8"?>
<svg width="24" height="24" fill="none" stroke="currentColor" stroke-linecap="round" stroke-linejoin="round" stroke-width="1.5" version="1.1" viewBox="0 0 24 24" xml:space="preserve"
    xmlns="http://www.w3.org/2000/svg">
    <g transform="translate(.48485 1.8556)">
        <g transform="matrix(1 0 0 .93108 .050051 2.5068)" stroke="#000" stroke-linecap="round" stroke-width="1.0364">
            <g transform="matrix(.70071 0 0 .69915 3.4314 -4.3596)" stroke-width="1.4807">
                <g transform="translate(-3.9983)" fill="none" stroke-linecap="round" stroke-width="1.4806">
                    <path d="m1.49 6.9283c0.671 1.071 1.1528 1.1589 0.95634 2.1845-0.087232 0.45545-0.32914 0.49261-0.17931 0.99589 0.036559 0.12281 0.16344 0.18905 0.23909 0.28913 0.062819 0.08311 0.14232 0.15758 0.17931 0.257 0.05753 0.1546 0.057888 0.19618 0.2092 0.28913 0.096703 0.0594 0.19808 0.10965 0.29886 0.16063 0.068646 0.03472 0.1516 0.0433 0.2092 0.09638 0.096632 0.08904-0.36914 0.45689-0.38852 0.48188-0.034343 0.0443-0.050951 0.10374-0.059772 0.16063-0.011469 0.07394-0.033606 0.1592 0 0.22488 0.10273 0.20077 0.57314 0.69698 0.74714 0.80314 0.21398 0.13055 0.45536 0.20111 0.68737 0.28913 0.026482 0.01004 0.42476 0.10373 0.44829 0.16063 0.095161 0.23016-0.14748 0.66732-0.2092 0.89952-0.052135 0.19614-0.0587 0.60181-0.029885 0.80314 0.027623 0.193 0.1068 0.11906 0.059772 0.32126-0.025473 0.10953-0.26155 0.58777-0.26897 0.61038-0.090911 0.27689 0.34975 0.51179 0.29886 0.86739-0.00883 0.06171-0.055895 0.10982-0.089657 0.16063-0.066019 0.09935-0.13322 0.19838-0.2092 0.28913-0.32052 0.38282-0.63957 0.52699-0.68737 1.0923-0.0027 0.032-0.00946 0.06591 0 0.09637 0.015186 0.04897 0.10859 0.11356 0.11954 0.16063 0.038902 0.16727-0.095928 0.7643-0.029885 0.93164 0.23596 0.59788 0.54215 0.9263 0.95634 1.3493 0.08697 0.08882 0.20243 0.14971 0.26897 0.257 0.081135 0.13083 0.00834 0.58737 0.17931 0.80314 0.15638 0.19733 0.36498 0.3417 0.56783 0.48188 0.098083 0.06778 0.24629 0.03988 0.32874 0.1285 0.00705 0.0076-0.024866-0.0093-0.029885 0-0.067344 0.1241-0.12549 0.254-0.17931 0.38551-0.055882 0.13653-0.10765 0.2754-0.14943 0.41763-0.044686 0.15211 0.018591 0.70362-0.059772 0.77101-0.12947 0.11134-0.28178 0.18816-0.4184 0.28913-0.00339 0.0025-0.1096 0.08834-0.059772 0.1285 0.03286 0.02649 0.078774 0.02676 0.11954 0.03213 0.4477 0.05892 0.89623 0.11052 1.3449 0.16063 0.3896 0.04352 0.8152-0.02766 1.1655 0.16063 0.012606 0.0068-0.02543 0.01775-0.029885 0.03213-0.016064 0.05181-0.02599 0.10619-0.029885 0.16063-0.00612 0.08541-0.013105 0.1725 0 0.25701 0.017098 0.11027 0.059772 0.21417 0.089657 0.32126 0.019923 0.14992 0.042985 0.2994 0.059772 0.44976 0.05236 0.46904-0.038715 0.67464 0.50806 0.67464 0.00997 0-0.028477-0.01061-0.029885 0-0.00986 0.07421-0.012469 0.15113 0 0.22488 0.031578 0.1867 0.024607 0.41196 0.14943 0.54614 0.22785 0.24492 0.50467-0.24012 0.6276-0.35338 0.1288-0.11868 0.2528-0.24396 0.38852-0.35338 0.14367-0.11583 0.29751-0.21638 0.44829-0.32126 0.0187-0.01294 0.03909-0.04102 0.05977-0.03213 0.03924 0.01688 0.05584 0.06912 0.08966 0.09637 0.12601 0.10159 0.25948 0.19203 0.38852 0.28913 0.22136 0.16656 0.2036 0.22608 0.50806 0.16063 0.17635-0.03791 0.4651-0.46758 0.59772-0.44976 0.03253 0.0044 0.24874 0.41868 0.26897 0.44976 0.44292 0.68017 0.96849 0.73889 1.823 0.73889 0.28752 0 0.55978-0.14216 0.8368-0.22488 0.08201-0.02448 0.16728-0.04725 0.23909-0.09637 0.04202-0.02874 0.0424-0.11157 0.08965-0.1285 0.08506-0.03047 0.17931 0 0.26897 0 0.11954 0 0.23962-0.01221 0.35863 0 0.49612 0.05079 0.8667 0.57625 1.4046 0.44976 0.39118-0.09198 0.71964-0.37214 0.98623-0.67464 0.04595-0.05215 0.06853-0.12461 0.08965-0.19275 0.0095-0.03047-0.02672-0.08201 0-0.09637 0.10518-0.05654 0.29979 0.05095 0.38852 0.06424 0.24658 0.03699 1.7666 0.37266 2.0322-0.09638 0.18321-0.32355 0.08273-0.50215-0.05977-0.73889-0.06605-0.10975-0.14392-0.21097-0.2092-0.32125-0.0054-9e-3 -7e-3 -0.02456 0-0.03213 0.03591-0.03861 0.09949 0.02215 0.14943 0.03213 0.38806 0.0776 0.77584 0.15747 1.1655 0.22488 0.47709 0.08254 0.95512 0.15956 1.4345 0.22488 0.22816 0.03108 0.45793 0.04723 0.68737 0.06424 0.05963 0.0044 0.11955 0 0.17932 0 0.02227 0 0.04196 0.0465 0.05976 0.03213 0.40286-1.0103 0.74458-0.962 1.3748-1.542 0.248-0.52553 0.68841-0.31377 1.1357-0.3855-0.34935-0.29261-5e-6 -0.4108-6e-6 -0.44976 0.16111-0.04724 0.33639-0.06578 0.47817-0.16063 0.31307-0.2094 0.60596-0.45862 0.86669-0.73889 0.11228-0.1207-0.23788-0.71926-0.29886-0.89952-0.01028-0.0302-0.02595-0.08044 0-0.09638 0.22439-0.13784 0.94911 0.05903 1.1357-0.03213 0.10955-0.05353-0.5276-1.1355-0.44829-1.2208 0.14565-0.15657 0.73711-0.3501 0.68737-0.54613-0.08783-0.34618-0.56576-0.41134-0.80692-0.54614-0.13491-0.07541-0.26478-0.162-0.38852-0.257-0.13738-0.10548 0.1591-0.29554-0.05976-0.51401-0.07977-0.07963-0.49865-0.31456-0.56783-0.48188-0.06351-0.15361 0.06732-0.26111 0.14943-0.35338 0.16555-0.18604 0.33032-0.37357 0.50806-0.54613 0.50398-0.48932 0.36647-0.20343 0.80692-0.80314 0.0427-0.05813 0.11178-0.31398 0.02989-0.38551-0.13525-0.11812-0.30051-0.18985-0.44829-0.28913-0.1099-0.07384-0.05538-0.14447 0.05977-0.257 0.21428-0.20939 0.7233-0.44414 0.56783-0.70676-0.0736-0.12432-0.70755-0.15019-0.86669-0.32126-0.02114-0.02272 0-0.06424 0-0.09637v-0.38551c0-0.10708-0.0343-0.22072 0-0.32126 0.05252-0.15397 0.44547-0.83294 0.53795-1.0601 0.04652-0.11433-0.04199-0.18052-0.05976-0.257-0.02175-0.09349-0.03148-0.19889 0-0.28913 0.1178-0.33768 0.6462-0.7366 0.38852-1.1244-0.1106-0.16645-0.59772-0.38319-0.59772-0.38551 0-0.22191 0.17441-0.37673 0.26897-0.54613 0.08713-0.1561 0.15747-0.32237 0.23908-0.48188 0.02799-0.054712 0.07128-0.10139 0.08965-0.16063 0.06883-0.22194 0.02862-0.48686 0.11954-0.70676 0.02023-0.048928 0.06738-0.080612 0.08965-0.1285 0.0089-0.019156-0.0054-0.043658 0-0.064251 0.02948-0.1109 0.09352-0.20936 0.11954-0.32126 0.05097-0.21913-0.05498-0.69268 0-0.89952 0.04078-0.15339 0.10812-0.16237 0.2092-0.28913 0.10338-0.12966 0.1784-0.30372 0.26897-0.44976" stroke="#d08a4f"/>
                    <path d="m30.422 6.0875v23.762h-29.916v-23.762" stroke="#000"/>
                </g>
            </g>
        </g>
    </g>
</svg>
