<?xml version="1.0" encoding="UTF-8" standalone="no"?>
<svg
   width="24"
   height="24"
   fill="none"
   stroke="currentColor"
   stroke-linecap="round"
   stroke-linejoin="round"
   stroke-width="1.5"
   version="1.1"
   viewBox="0 0 24 24"
   xml:space="preserve"
   id="svg137"
   sodipodi:docname="strickler_coef.svg"
   inkscape:version="1.2.1 (9c6d41e410, 2022-07-14)"
   xmlns:inkscape="http://www.inkscape.org/namespaces/inkscape"
   xmlns:sodipodi="http://sodipodi.sourceforge.net/DTD/sodipodi-0.dtd"
   xmlns="http://www.w3.org/2000/svg"
   xmlns:svg="http://www.w3.org/2000/svg"><defs
     id="defs141" /><sodipodi:namedview
     id="namedview139"
     pagecolor="#505050"
     bordercolor="#ffffff"
     borderopacity="1"
     inkscape:showpageshadow="0"
     inkscape:pageopacity="0"
     inkscape:pagecheckerboard="1"
     inkscape:deskcolor="#505050"
     showgrid="false"
     inkscape:zoom="45.254834"
     inkscape:cx="12.639534"
     inkscape:cy="14.606174"
     inkscape:window-width="2520"
     inkscape:window-height="1574"
     inkscape:window-x="-11"
     inkscape:window-y="-11"
     inkscape:window-maximized="1"
     inkscape:current-layer="g8770" /><g
     transform="translate(.48485 1.8556)"
     id="g135"><g
       transform="matrix(1 0 0 .93108 .050051 2.5068)"
       stroke="#000"
       stroke-linecap="round"
       stroke-width="1.0364"
       id="g133"><g
         id="g8846"
         transform="matrix(0.70070671,0,0,0.69915088,3.4314272,-4.3595944)"
         style="stroke-width:1.48072"><g
           id="g8770"
           transform="translate(-3.9982902)"
           style="stroke-width:1.48072"><path
             style="fill:none;stroke:#d08a4f;stroke-width:1.48065;stroke-linecap:round;stroke-dasharray:none"
             d="m 1.4899584,6.9283396 c 0.6709953,1.0709951 1.152787,1.1588819 0.9563448,2.1845366 -0.087232,0.4554534 -0.3291371,0.4926075 -0.1793146,0.9958918 0.036559,0.122813 0.163442,0.189052 0.2390862,0.28913 0.062819,0.08311 0.1423171,0.157578 0.1793147,0.257004 0.05753,0.154605 0.057888,0.196185 0.2092005,0.28913 0.096703,0.0594 0.198081,0.10965 0.2988577,0.160627 0.068646,0.03472 0.1515974,0.0433 0.2092005,0.09638 0.096632,0.08904 -0.3691378,0.456888 -0.3885151,0.481883 -0.034343,0.0443 -0.050951,0.103745 -0.059772,0.160627 -0.011469,0.07394 -0.033606,0.159198 0,0.224879 0.102726,0.200772 0.5731413,0.696979 0.7471445,0.803138 0.2139788,0.130549 0.4553582,0.201106 0.6873731,0.28913 0.026482,0.01004 0.4247628,0.103733 0.4482866,0.160628 0.095161,0.23016 -0.1474831,0.667316 -0.2092005,0.899515 -0.052135,0.196145 -0.0587,0.601812 -0.029885,0.803139 0.027623,0.193005 0.1067971,0.119055 0.059772,0.321256 -0.025473,0.109532 -0.2615466,0.58777 -0.268972,0.610384 -0.090911,0.276886 0.349751,0.511792 0.2988579,0.867391 -0.00883,0.06171 -0.055895,0.109822 -0.089657,0.160627 -0.066019,0.09935 -0.1332175,0.198377 -0.2092004,0.28913 -0.3205181,0.382821 -0.6395672,0.526993 -0.687373,1.092269 -0.0027,0.032 -0.00946,0.06591 0,0.09637 0.015186,0.04897 0.1085943,0.113559 0.1195427,0.160629 0.038902,0.167269 -0.095928,0.7643 -0.029885,0.93164 0.2359615,0.597877 0.5421513,0.926299 0.9563448,1.349273 0.08697,0.08882 0.2024316,0.149712 0.2689721,0.257003 0.081135,0.13083 0.00834,0.587371 0.1793146,0.803139 0.1563795,0.197334 0.3649774,0.341705 0.5678299,0.481883 0.098083,0.06778 0.246294,0.03988 0.3287435,0.128505 0.00705,0.0076 -0.024866,-0.0093 -0.029885,0 -0.067344,0.1241 -0.125488,0.254004 -0.1793147,0.385506 -0.055882,0.13653 -0.1076463,0.275403 -0.1494289,0.417632 -0.044686,0.152112 0.018591,0.703625 -0.059772,0.771014 -0.1294672,0.111335 -0.2817751,0.18816 -0.4184009,0.289129 -0.00339,0.0025 -0.1095993,0.08834 -0.059772,0.128504 0.03286,0.02649 0.078774,0.02676 0.1195427,0.03213 0.4477014,0.05892 0.8962296,0.11052 1.3448601,0.160626 0.3895979,0.04352 0.8152027,-0.02766 1.1655454,0.160629 0.012606,0.0068 -0.02543,0.01775 -0.029885,0.03213 -0.016064,0.05181 -0.02599,0.106189 -0.029885,0.160627 -0.00612,0.08541 -0.013105,0.172503 0,0.257006 0.017098,0.110273 0.059772,0.214169 0.089657,0.321255 0.019923,0.149918 0.042985,0.299395 0.059772,0.449757 0.05236,0.469036 -0.038715,0.674636 0.5080582,0.674636 0.00997,0 -0.028477,-0.01061 -0.029885,0 -0.00986,0.07421 -0.012469,0.151129 0,0.224878 0.031578,0.186696 0.024607,0.411958 0.1494289,0.546136 0.2278469,0.244922 0.5046716,-0.240116 0.6276014,-0.353382 0.1288043,-0.118676 0.2527986,-0.243965 0.388515,-0.353381 0.1436731,-0.115826 0.2975075,-0.21638 0.4482869,-0.321255 0.0187,-0.01294 0.03909,-0.04102 0.05977,-0.03213 0.03924,0.01688 0.05584,0.06912 0.08966,0.09637 0.12601,0.101594 0.259476,0.192034 0.388516,0.28913 0.221358,0.166565 0.203604,0.226082 0.508058,0.160627 0.176354,-0.03791 0.465097,-0.467577 0.597716,-0.449757 0.03253,0.0044 0.248735,0.418681 0.268972,0.449757 0.442921,0.680167 0.968486,0.738887 1.82303,0.738887 0.28752,0 0.559775,-0.142155 0.836803,-0.224877 0.08201,-0.02448 0.167279,-0.04725 0.239087,-0.09637 0.04202,-0.02874 0.0424,-0.111567 0.08965,-0.128505 0.08506,-0.03047 0.179312,0 0.268971,0 0.119545,0 0.239625,-0.01221 0.35863,0 0.496122,0.05079 0.866696,0.57625 1.404632,0.449757 0.391181,-0.09198 0.719635,-0.372141 0.98623,-0.674635 0.04595,-0.05215 0.06853,-0.124608 0.08965,-0.192754 0.0095,-0.03047 -0.02672,-0.08201 0,-0.09637 0.105182,-0.05654 0.299788,0.05095 0.388515,0.06424 0.246575,0.03699 1.766638,0.372658 2.032233,-0.09638 0.183211,-0.323546 0.08273,-0.502154 -0.05977,-0.738887 -0.06605,-0.109746 -0.143915,-0.210974 -0.2092,-0.321251 -0.0054,-0.009 -0.007,-0.02456 0,-0.03213 0.03591,-0.03861 0.09949,0.02215 0.149429,0.03213 0.388065,0.0776 0.775835,0.157466 1.165546,0.224877 0.477092,0.08254 0.955122,0.159558 1.434516,0.22488 0.228165,0.03108 0.45793,0.04723 0.687373,0.06424 0.05963,0.0044 0.119546,0 0.179315,0 0.02227,0 0.04196,0.0465 0.05976,0.03213 0.402863,-1.010261 0.744583,-0.962005 1.374753,-1.542021 0.247995,-0.525533 0.688407,-0.313771 1.135668,-0.385501 -0.349354,-0.292606 -5e-6,-0.410801 -6e-6,-0.449762 0.161108,-0.04724 0.336388,-0.06578 0.478174,-0.160629 0.313067,-0.209397 0.605956,-0.458618 0.866687,-0.738887 0.112282,-0.120698 -0.23788,-0.719256 -0.298858,-0.899515 -0.01028,-0.0302 -0.02595,-0.08044 0,-0.09638 0.224392,-0.137838 0.949106,0.05903 1.13566,-0.03213 0.109551,-0.05353 -0.527595,-1.135519 -0.448287,-1.220772 0.145652,-0.156567 0.737108,-0.350104 0.687373,-0.546133 -0.08783,-0.346181 -0.565764,-0.411337 -0.806916,-0.546135 -0.13491,-0.07541 -0.264776,-0.161995 -0.388515,-0.257004 -0.137382,-0.105475 0.159097,-0.295541 -0.05976,-0.514009 -0.07977,-0.07963 -0.498648,-0.314557 -0.56783,-0.481882 -0.06351,-0.153608 0.06732,-0.261106 0.149429,-0.353381 0.165549,-0.186045 0.330324,-0.373569 0.508059,-0.546134 0.503977,-0.489321 0.36647,-0.203429 0.806915,-0.803139 0.0427,-0.05813 0.111783,-0.313977 0.02989,-0.385507 -0.135247,-0.118124 -0.300512,-0.18985 -0.448286,-0.289129 -0.109903,-0.07384 -0.05538,-0.144467 0.05977,-0.257004 0.214275,-0.209393 0.723301,-0.444143 0.567831,-0.706763 -0.0736,-0.124317 -0.707549,-0.150189 -0.866689,-0.321255 -0.02114,-0.02272 0,-0.06424 0,-0.09637 v -0.160629 -0.224879 c 0,-0.107085 -0.0343,-0.220715 0,-0.321255 0.05252,-0.153966 0.44547,-0.832935 0.537946,-1.060143 0.04652,-0.114327 -0.04199,-0.180524 -0.05976,-0.257005 -0.02175,-0.09349 -0.03148,-0.198889 0,-0.28913 0.117801,-0.337675 0.646198,-0.7366 0.388515,-1.124393 -0.110605,-0.166452 -0.597716,-0.383188 -0.597716,-0.385506 0,-0.22191 0.174413,-0.376726 0.268973,-0.546134 0.08713,-0.156103 0.157471,-0.3223735 0.239085,-0.4818836 0.02799,-0.054712 0.07128,-0.1013905 0.08965,-0.1606278 0.06883,-0.2219408 0.02862,-0.486856 0.119545,-0.7067619 0.02023,-0.048928 0.06738,-0.080612 0.08965,-0.1285015 0.0089,-0.019156 -0.0054,-0.043658 0,-0.064251 0.02948,-0.1108972 0.09352,-0.2093648 0.119545,-0.3212555 0.05097,-0.2191327 -0.05498,-0.6926835 0,-0.899515 0.04078,-0.1533946 0.108117,-0.1623654 0.2092,-0.2891299 0.103383,-0.129656 0.178403,-0.3037219 0.268973,-0.4497575"
             id="path39116"
             sodipodi:nodetypes="csssssccscsscsssscssscccscscsccssssscccccscssccssscccssccscscscsccccscccccccscccccscssssscssssssscssscssccsssssssccsssc" /><path
             id="path18400-4"
             style="fill:none;fill-opacity:1;stroke:#000000;stroke-width:1.48065;stroke-linecap:round;stroke-dasharray:none;stroke-opacity:1"
             d="M 30.421501,6.0874978 V 29.84907 c -9.972075,0 -19.944149,0 -29.9162236,0 V 6.0874982"
             sodipodi:nodetypes="cccc" /></g></g></g></g></svg>
