<?xml version="1.0" encoding="UTF-8"?>
<svg width="24" height="24" fill="none" stroke="currentColor" stroke-linecap="round" stroke-linejoin="round" stroke-width="1.5" version="1.1" viewBox="0 0 24 24" xml:space="preserve"
    xmlns="http://www.w3.org/2000/svg">
    <g fill="#cece00" stroke="none">
        <rect x="17.136" y="2.5932" width="5.0622" height="3.8136" ry="1.2168"/>
        <rect x="17.134" y="5.8983" width="5.0622" height="3.8136" ry="1.2168"/>
        <rect x="17.198" y="9.0508" width="5.0622" height="3.8136" ry="1.2168"/>
        <path d="m17.975 3.1398s-0.82627-0.40678-0.82627-0.90254c0-0.49576 0.38136-0.54025 0.92797-0.55932 1.6022-0.043941 2.7095 0.17522 4.1949 0.73729 0.05085 0.050847-1.3729 1.6907-1.3729 1.6907z"/>
        <path d="m18.039 12.495s-0.82627 0.40678-0.82627 0.90254 0.38136 0.54025 0.92797 0.55932c1.6022 0.04394 2.7095-0.17522 4.1949-0.73729 0.05085-0.05085-1.3729-1.6907-1.3729-1.6907z"/>
    </g>
    <g transform="matrix(1.0651 0 0 1.0641 -.3622 -.45244)" stroke-width=".93931">
        <path d="m1.9434 21.077-0.035954 1.0427h14.454l-0.01016-1.4338-7.2886-3.6358z" fill="#1c1ccb" stroke="none"/>
        <path d="m2.0135 21.609h14.418l-0.25168-4.6381-2.7685-3.8112-5.6808-0.61123-3.3797 1.0786-1.8337 3.7033-0.53932 4.4943" fill="#4b4bff" stroke="none"/>
        <g stroke="#000" stroke-opacity=".99216" stroke-width=".93931">
            <path d="m2.0135 21.375c3e-7 -8.3142 3.2436-8.9347 7.2448-8.9347"/>
            <path d="m16.32 21.376c0-8.3142-3.2436-8.9347-7.2448-8.9347"/>
            <path d="m9.0965 12.476v-10.211" fill="none" stroke-linecap="round"/>
        </g>
        <ellipse cx="9.084" cy="3.4074" rx=".33701" ry=".34534" fill="#4b4bff" stroke="none"/>
    </g>
    <path d="m22.2 22.406v-20.503" fill="none" stroke="#000" stroke-linecap="round" stroke-width="1"/>
</svg>
