<?xml version="1.0" encoding="UTF-8"?>
<svg width="24" height="24" fill="none" stroke="currentColor" stroke-linecap="round" stroke-linejoin="round" stroke-width="1.5" version="1.1" viewBox="0 0 24 24" xml:space="preserve"
    xmlns="http://www.w3.org/2000/svg">
    <g transform="translate(.48485 1.8556)">
        <g transform="matrix(1 0 0 .93108 .050051 2.5068)" stroke="currentColor" stroke-linecap="round" stroke-width="1.0364">
            <g transform="translate(-.054376 -9.0301)">
                <g transform="translate(0 -.7818)">
                    <g fill="#accbff" stroke-linecap="round" stroke-width="1.0741">
                        <g transform="translate(.12331 2.6282)">
                            <path d="m6.2868 17.233h-5.0489"/>
                            <path d="m13.921 17.233h-5.0489"/>
                            <path d="m21.554 17.233h-5.0489"/>
                        </g>
                        <g transform="translate(.12331 6.321)">
                            <path d="m6.2868 17.233h-5.0489"/>
                            <path d="m13.921 17.233h-5.0489"/>
                            <path d="m21.554 17.233h-5.0489"/>
                        </g>
                        <g transform="translate(.12331 10.014)">
                            <path d="m6.2868 17.233h-5.0489"/>
                            <path d="m13.921 17.233h-5.0489"/>
                            <path d="m21.554 17.233h-5.0489"/>
                        </g>
                        <g transform="translate(.12331 -1.0646)">
                            <path d="m6.2868 17.233h-5.0489"/>
                            <path d="m13.921 17.233h-5.0489"/>
                            <path d="m21.554 17.233h-5.0489"/>
                        </g>
                        <g transform="translate(.12331 -4.7574)">
                            <path d="m6.2868 17.233h-5.0489"/>
                            <path d="m13.921 17.233h-5.0489"/>
                            <path d="m21.554 17.233h-5.0489"/>
                        </g>
                    </g>
                    <g transform="translate(.12331 -8.4502)">
                        <path d="m21.677 17.233h-20.439" fill="#accbff" stroke-linecap="round" stroke-width="1.0741"/>
                    </g>
                </g>
            </g>
        </g>
    </g>
</svg>
