<?xml version="1.0" encoding="UTF-8"?>
<svg width="24" height="24" fill="none" stroke="currentColor" stroke-linecap="round" stroke-linejoin="round" stroke-width="1.5" version="1.1" viewBox="0 0 24 24" xml:space="preserve"
    xmlns="http://www.w3.org/2000/svg">
    <path d="m18.635 0.95703c-1.2273-0.023996-2.4465 0.49148-3.2461 1.3027-2.1593 2.1907-1.4529 4.2114-1.8438 5.1016-0.39082 0.89021-11.572 11.659-11.963 12.115-0.39082 0.45596-1.2598 1.8027 0.029297 3.2148 1.3978 1.3036 2.7433 0.43379 3.1992 0.042969 0.45596-0.39082 11.225-11.572 12.115-11.963 0.89021-0.39082 2.9109 0.31554 5.1016-1.8437 1.18-1.1631 1.7367-3.2135 0.91406-4.8867l-2.9531 2.9102s-0.91268 0.12956-1.9082-0.72852c-0.84364-1.01-0.71289-1.9219-0.71289-1.9219l2.9082-2.9531c-0.52287-0.25707-1.0828-0.37972-1.6406-0.39062zm-15.385 18.943a1.1441 1.1262 0 0 1 1.1445 1.125 1.1441 1.1262 0 0 1-1.1445 1.127 1.1441 1.1262 0 0 1-1.1426-1.127 1.1441 1.1262 0 0 1 1.1426-1.125z" fill="currentColor" stroke="none"/>
</svg>
