<?xml version="1.0" encoding="UTF-8"?>
<svg width="24" height="24" stroke-linecap="round" stroke-linejoin="round" version="1.1" viewBox="0 0 24 24" xml:space="preserve"
    xmlns="http://www.w3.org/2000/svg">
    <g transform="matrix(.77292 -.20712 .20711 .77296 -45.625 12.26)" fill="#d08a4f" stroke-width="1.3845" style="shape-inside:url(#rect625-5-1);white-space:pre" aria-label="r">
        <path d="m82.701 19.328c-0.10015 0.37376-2.7742 2.2457-8.022 5.6158-5.7218 3.6437-10.135 5.0496-13.24 4.2176-2.0125-0.53926-3.5334-1.7634-4.5626-3.6723-1.0215-1.9377-1.2472-3.9703-0.67718-6.0979 0.64711-2.415 2.2948-4.6544 4.9432-6.7181s5.8761-3.587 9.6831-4.5698c3.2202-0.86277 5.7072-1.0592 7.461-0.58927 2.1275 0.57007 2.8523 2.1201 2.1744 4.6502-0.53155 1.9838-1.7387 3.7865-3.6216 5.4082-1.8541 1.6294-3.4424 2.2669-4.7649 1.9126-1.2938-0.34666-1.7673-1.1669-1.4207-2.4606 0.40829-1.5238 2.1083-2.5782 5.1-3.1632 2.3109-0.4593 3.6859-1.5083 4.125-3.1471 0.34666-1.2938-0.18439-2.1294-1.5932-2.5069-2.3863-0.6394-5.9544 0.94673-10.704 4.7584-4.7499 3.8117-7.5563 7.3275-8.4191 10.548-0.72414 2.7025 0.1788 4.3928 2.7088 5.0707 3.9676 1.0631 10.542-1.967 19.723-9.0903 0.49701-0.35986 0.83177-0.51668 1.0043-0.47045 0.10729 0.05956 0.14168 0.16122 0.10315 0.30499z" fill="none" stroke="#d08a4f" stroke-width="1.2497"/>
    </g>

    <g transform="matrix(3.2094 0 0 3.2094 -3.6894 -40.217)" stroke-width=".31208" style="shape-inside:url(#rect8454);white-space:pre" aria-label="x" stroke="currentColor">
        <path d="m5.4902 19.581 0.17188-0.35742q0.072266 0.04102 0.16406 0.04102 0.29688 0 0.74414-0.53516l0.11719-0.14258-0.26562-0.625q-0.099609-0.23633-0.19531-0.23633-0.11719 0-0.35547 0.31836l0.050781-0.25586q0.28516-0.375 0.48828-0.375 0.18945 0 0.35547 0.37891l0.22266 0.50977 0.12695-0.16211q0.57031-0.72656 0.93555-0.72656 0.097656 0 0.20117 0.06445l-0.20117 0.35547q-0.080078-0.04883-0.1543-0.04883-0.32422 0-0.76172 0.53516l-0.09375 0.11328 0.29297 0.68164q0.10156 0.24414 0.20312 0.24414 0.13867 0 0.38672-0.29102l-0.046875 0.23438q-0.29883 0.32812-0.5293 0.32812-0.2207 0-0.35742-0.32227l-0.25195-0.59765-0.1582 0.20117q-0.56445 0.71875-0.88281 0.71875-0.080078 0-0.20703-0.04883z"/>
    </g>
</svg>
