<?xml version="1.0" encoding="UTF-8"?>
<svg width="24" height="24" stroke-linecap="round" stroke-linejoin="round" stroke-width="1.5" version="1.1" viewBox="0 0 24 24" xml:space="preserve" xmlns="http://www.w3.org/2000/svg"><g transform="matrix(.71341 -.19116 .19116 .71341 -41.463 13.071)" fill="#d08a4f" style="shape-inside:url(#rect625-5-1);white-space:pre" aria-label="r"><path d="m82.701 19.328c-0.10015 0.37376-2.7742 2.2457-8.022 5.6158-5.7218 3.6437-10.135 5.0496-13.24 4.2176-2.0125-0.53926-3.5334-1.7634-4.5626-3.6723-1.0215-1.9377-1.2472-3.9703-0.67718-6.0979 0.64711-2.415 2.2948-4.6544 4.9432-6.7181s5.8761-3.587 9.6831-4.5698c3.2202-0.86277 5.7072-1.0592 7.461-0.58927 2.1275 0.57007 2.8523 2.1201 2.1744 4.6502-0.53155 1.9838-1.7387 3.7865-3.6216 5.4082-1.8541 1.6294-3.4424 2.2669-4.7649 1.9126-1.2938-0.34666-1.7673-1.1669-1.4207-2.4606 0.40829-1.5238 2.1083-2.5782 5.1-3.1632 2.3109-0.4593 3.6859-1.5083 4.125-3.1471 0.34666-1.2938-0.18439-2.1294-1.5932-2.5069-2.3863-0.6394-5.9544 0.94673-10.704 4.7584-4.7499 3.8117-7.5563 7.3275-8.4191 10.548-0.72414 2.7025 0.1788 4.3928 2.7088 5.0707 3.9676 1.0631 10.542-1.967 19.723-9.0903 0.49701-0.35986 0.83177-0.51668 1.0043-0.47045 0.10729 0.05956 0.14168 0.16122 0.10315 0.30499z" fill="none" stroke="#d08a4f" stroke-width="1.354"/></g><g transform="matrix(.27297 0 0 .27297 2.0818 5.2825)" fill="#d08a4f" stroke-width="69.229" style="shape-inside:url(#rect484);white-space:pre" aria-label="r"><path d="m73.846 41.564q0.44751 0 1.0577 0.04068t0.97638 0.12205l-0.44751 5.6956q-0.32546-0.08136-0.85434-0.12205-0.52887-0.08136-0.9357-0.08136-1.5459 0-2.9698 0.56956-1.4239 0.52887-2.3189 1.7494-0.85434 1.2205-0.85434 3.336v11.31h-6.0617v-22.213h4.5971l0.89502 3.7428h0.28478q0.97638-1.7087 2.6851-2.9291t3.9462-1.2205z"/></g></svg>
