<?xml version="1.0" encoding="UTF-8"?>
<svg width="24" height="24" stroke-linecap="round" stroke-linejoin="round" stroke-width="1.5" version="1.1" viewBox="0 0 24 24" xml:space="preserve"
    xmlns="http://www.w3.org/2000/svg">
    <g transform="matrix(.71341 -.19116 .19116 .71341 -41.463 13.071)" fill="#d08a4f" style="shape-inside:url(#rect625-5-1);white-space:pre" aria-label="r">
        <path d="m82.701 19.328c-0.10015 0.37376-2.7742 2.2457-8.022 5.6158-5.7218 3.6437-10.135 5.0496-13.24 4.2176-2.0125-0.53926-3.5334-1.7634-4.5626-3.6723-1.0215-1.9377-1.2472-3.9703-0.67718-6.0979 0.64711-2.415 2.2948-4.6544 4.9432-6.7181s5.8761-3.587 9.6831-4.5698c3.2202-0.86277 5.7072-1.0592 7.461-0.58927 2.1275 0.57007 2.8523 2.1201 2.1744 4.6502-0.53155 1.9838-1.7387 3.7865-3.6216 5.4082-1.8541 1.6294-3.4424 2.2669-4.7649 1.9126-1.2938-0.34666-1.7673-1.1669-1.4207-2.4606 0.40829-1.5238 2.1083-2.5782 5.1-3.1632 2.3109-0.4593 3.6859-1.5083 4.125-3.1471 0.34666-1.2938-0.18439-2.1294-1.5932-2.5069-2.3863-0.6394-5.9544 0.94673-10.704 4.7584-4.7499 3.8117-7.5563 7.3275-8.4191 10.548-0.72414 2.7025 0.1788 4.3928 2.7088 5.0707 3.9676 1.0631 10.542-1.967 19.723-9.0903 0.49701-0.35986 0.83177-0.51668 1.0043-0.47045 0.10729 0.05956 0.14168 0.16122 0.10315 0.30499z" fill="none" stroke="#d08a4f" stroke-width="1.354"/>
    </g>
    <g transform="matrix(.80943 0 0 .80943 -18.693 -18.866)" fill="#d08a4f" stroke-width="23.347" style="shape-inside:url(#rect243);white-space:pre" aria-label="o">
        <path d="m51.265 47.834q0 1.8133-0.96 2.8-0.94666 0.98666-2.5867 0.98666-1.0133 0-1.8133-0.44-0.78666-0.44-1.24-1.28-0.45333-0.85333-0.45333-2.0667 0-1.8133 0.94666-2.7867 0.94666-0.97333 2.6-0.97333 1.0267 0 1.8133 0.44 0.78666 0.44 1.24 1.28 0.45333 0.84 0.45333 2.04zm-5.0267 0q0 1.08 0.34667 1.64 0.36 0.54666 1.16 0.54666 0.78666 0 1.1333-0.54666 0.36-0.56 0.36-1.64t-0.36-1.6133q-0.34667-0.54666-1.1467-0.54666-0.78666 0-1.1467 0.54666-0.34667 0.53333-0.34667 1.6133z"/>
    </g>
</svg>
